<svg width="18" height="19" viewBox="0 0 18 19" fill="none" xmlns="http://www.w3.org/2000/svg">
<path d="M3 9.5V14C3 15.4045 3 16.1067 3.33706 16.6111C3.48298 16.8295 3.67048 17.017 3.88886 17.1629C4.39331 17.5 5.09554 17.5 6.5 17.5H11.5C12.9045 17.5 13.6067 17.5 14.1111 17.1629C14.3295 17.017 14.517 16.8295 14.6629 16.6111C15 16.1067 15 15.4045 15 14V9.5" stroke="white" stroke-width="1.5" stroke-linejoin="round"/>
<path d="M11 17.5V13.375C11 13.0239 11 12.8483 10.9157 12.7222C10.8793 12.6676 10.8324 12.6207 10.7778 12.5843C10.6517 12.5 10.4761 12.5 10.125 12.5H7.875C7.52388 12.5 7.34833 12.5 7.22221 12.5843C7.16762 12.6207 7.12074 12.6676 7.08427 12.7222C7 12.8483 7 13.0239 7 13.375V17.5" stroke="white" stroke-width="1.5"/>
<path d="M1 9L2.30715 4.09818C2.59125 3.03283 2.73329 2.50016 3.07581 2.13391C3.22529 1.97406 3.4 1.83984 3.59297 1.73658C4.03511 1.5 4.5864 1.5 5.68897 1.5H12.311C13.4136 1.5 13.9649 1.5 14.407 1.73658C14.6 1.83984 14.7747 1.97406 14.9242 2.13391C15.2667 2.50016 15.4088 3.03283 15.6928 4.09818L17 9" stroke="white" stroke-width="1.5" stroke-linecap="round"/>
<path d="M1 9H4.39023C5.0676 9 5.40629 9 5.71555 8.89638C5.85193 8.85068 5.98299 8.7904 6.10644 8.71659C6.38638 8.54922 6.6068 8.29207 7.04763 7.77777L8.33565 6.27507C8.59815 5.96882 8.7294 5.8157 8.89306 5.77987C8.96352 5.76444 9.03648 5.76444 9.10694 5.77987C9.2706 5.8157 9.40185 5.96882 9.66435 6.27507L10.9524 7.77777C11.3932 8.29207 11.6136 8.54922 11.8936 8.71659C12.017 8.7904 12.1481 8.85068 12.2844 8.89638C12.5937 9 12.9324 9 13.6098 9H17" stroke="white" stroke-width="1.5" stroke-linecap="round"/>
</svg>
