<svg width="22" height="22" viewBox="0 0 22 22" fill="none" xmlns="http://www.w3.org/2000/svg">
<path d="M15.125 5.5H6.875V9.625H15.125V5.5Z" stroke="white" stroke-width="1.5" stroke-linecap="round" stroke-linejoin="round"/>
<path d="M17.875 18.5625V3.4375C17.875 3.0578 17.5672 2.75 17.1875 2.75H4.8125C4.4328 2.75 4.125 3.0578 4.125 3.4375V18.5625C4.125 18.9422 4.4328 19.25 4.8125 19.25H17.1875C17.5672 19.25 17.875 18.9422 17.875 18.5625Z" stroke="white" stroke-width="1.5" stroke-linecap="round" stroke-linejoin="round"/>
<path d="M14.4375 17.1875C15.007 17.1875 15.4688 16.7258 15.4688 16.1562C15.4688 15.5867 15.007 15.125 14.4375 15.125C13.868 15.125 13.4062 15.5867 13.4062 16.1562C13.4062 16.7258 13.868 17.1875 14.4375 17.1875Z" fill="white"/>
<path d="M11 17.1875C11.5695 17.1875 12.0312 16.7258 12.0312 16.1562C12.0312 15.5867 11.5695 15.125 11 15.125C10.4305 15.125 9.96875 15.5867 9.96875 16.1562C9.96875 16.7258 10.4305 17.1875 11 17.1875Z" fill="white"/>
<path d="M7.5625 17.1875C8.13204 17.1875 8.59375 16.7258 8.59375 16.1562C8.59375 15.5867 8.13204 15.125 7.5625 15.125C6.99296 15.125 6.53125 15.5867 6.53125 16.1562C6.53125 16.7258 6.99296 17.1875 7.5625 17.1875Z" fill="white"/>
<path d="M14.4375 13.75C15.007 13.75 15.4688 13.2883 15.4688 12.7188C15.4688 12.1492 15.007 11.6875 14.4375 11.6875C13.868 11.6875 13.4062 12.1492 13.4062 12.7188C13.4062 13.2883 13.868 13.75 14.4375 13.75Z" fill="white"/>
<path d="M11 13.75C11.5695 13.75 12.0312 13.2883 12.0312 12.7188C12.0312 12.1492 11.5695 11.6875 11 11.6875C10.4305 11.6875 9.96875 12.1492 9.96875 12.7188C9.96875 13.2883 10.4305 13.75 11 13.75Z" fill="white"/>
<path d="M7.5625 13.75C8.13204 13.75 8.59375 13.2883 8.59375 12.7188C8.59375 12.1492 8.13204 11.6875 7.5625 11.6875C6.99296 11.6875 6.53125 12.1492 6.53125 12.7188C6.53125 13.2883 6.99296 13.75 7.5625 13.75Z" fill="white"/>
</svg>
