<svg width="18" height="19" viewBox="0 0 18 19" fill="none" xmlns="http://www.w3.org/2000/svg">
<path d="M9 14.5V15.5V17.5M7 17.5H11" stroke="white" stroke-width="1.5" stroke-linecap="round"/>
<path d="M13.5 1.5C14.9045 1.5 15.6067 1.5 16.1111 1.83706C16.3295 1.98298 16.517 2.17048 16.6629 2.38886C17 2.89331 17 3.59554 17 5L17 11C17 12.4045 17 13.1067 16.6629 13.6111C16.517 13.8295 16.3295 14.017 16.1111 14.1629C15.6067 14.5 14.9045 14.5 13.5 14.5L4.5 14.5C3.09554 14.5 2.39331 14.5 1.88886 14.1629C1.67048 14.017 1.48298 13.8295 1.33706 13.6111C1 13.1067 1 12.4045 1 11L1 5C1 3.59554 1 2.89331 1.33706 2.38886C1.48298 2.17048 1.67048 1.98298 1.88886 1.83706C2.39331 1.5 3.09554 1.5 4.5 1.5L13.5 1.5Z" stroke="white" stroke-width="1.5"/>
<path d="M8 6.5L6 9.5" stroke="white" stroke-width="1.5" stroke-linecap="round"/>
<path d="M12.2412 6.5L10.2412 9.5" stroke="white" stroke-width="1.5" stroke-linecap="round"/>
</svg>
