<svg width="17" height="19" viewBox="0 0 17 19" fill="none" xmlns="http://www.w3.org/2000/svg">
<path d="M2 5C2 3.59554 2 2.89331 2.33706 2.38886C2.48298 2.17048 2.67048 1.98298 2.88886 1.83706C3.39331 1.5 4.09554 1.5 5.5 1.5H12.5C13.9045 1.5 14.6067 1.5 15.1111 1.83706C15.3295 1.98298 15.517 2.17048 15.6629 2.38886C16 2.89331 16 3.59554 16 5V14C16 15.4045 16 16.1067 15.6629 16.6111C15.517 16.8295 15.3295 17.017 15.1111 17.1629C14.6067 17.5 13.9045 17.5 12.5 17.5H5.5C4.09554 17.5 3.39331 17.5 2.88886 17.1629C2.67048 17.017 2.48298 16.8295 2.33706 16.6111C2 16.1067 2 15.4045 2 14V5Z" stroke="white" stroke-width="1.5"/>
<path d="M7 5.5H11" stroke="white" stroke-width="1.5" stroke-linecap="round"/>
<path d="M7 9.5H11" stroke="white" stroke-width="1.5" stroke-linecap="round"/>
<path d="M7 13.5H11" stroke="white" stroke-width="1.5" stroke-linecap="round"/>
<path d="M1 7.5H3" stroke="white" stroke-width="1.5" stroke-linecap="round"/>
<path d="M1 11.5H3" stroke="white" stroke-width="1.5" stroke-linecap="round"/>
</svg>
