<svg width="18" height="19" viewBox="0 0 18 19" fill="none" xmlns="http://www.w3.org/2000/svg">
<path d="M15.25 1.5C15.9522 1.5 16.3033 1.5 16.5556 1.66853C16.6648 1.74149 16.7585 1.83524 16.8315 1.94443C17 2.19666 17 2.54778 17 3.25001L17 5.75001C17 6.45224 17 6.80335 16.8314 7.05557C16.7585 7.16476 16.6647 7.25851 16.5555 7.33147C16.3033 7.5 15.9522 7.5 15.25 7.5L12.75 7.5C12.0478 7.5 11.6967 7.5 11.4444 7.33147C11.3352 7.25851 11.2415 7.16476 11.1685 7.05557C11 6.80335 11 6.45223 11 5.75L11 3.25C11 2.54777 11 2.19665 11.1685 1.94443C11.2415 1.83524 11.3352 1.74149 11.4444 1.66853C11.6967 1.5 12.0478 1.5 12.75 1.5L15.25 1.5Z" stroke="white" stroke-width="1.5"/>
<path d="M15.25 11.5C15.9522 11.5 16.3033 11.5 16.5556 11.6685C16.6648 11.7415 16.7585 11.8352 16.8315 11.9444C17 12.1967 17 12.5478 17 13.25L17 15.75C17 16.4522 17 16.8034 16.8314 17.0556C16.7585 17.1648 16.6647 17.2585 16.5555 17.3315C16.3033 17.5 15.9522 17.5 15.25 17.5L12.75 17.5C12.0478 17.5 11.6967 17.5 11.4444 17.3315C11.3352 17.2585 11.2415 17.1648 11.1685 17.0556C11 16.8033 11 16.4522 11 15.75L11 13.25C11 12.5478 11 12.1967 11.1685 11.9444C11.2415 11.8352 11.3352 11.7415 11.4444 11.6685C11.6967 11.5 12.0478 11.5 12.75 11.5L15.25 11.5Z" stroke="white" stroke-width="1.5"/>
<path d="M5.25 1.5C5.95223 1.5 6.30335 1.5 6.55557 1.66853C6.66476 1.74149 6.75851 1.83524 6.83147 1.94443C7 2.19665 7 2.54777 7 3.25L7 15.75C7 16.4522 7 16.8033 6.83147 17.0556C6.75851 17.1648 6.66476 17.2585 6.55557 17.3315C6.30335 17.5 5.95223 17.5 5.25 17.5L2.75 17.5C2.04777 17.5 1.69665 17.5 1.44443 17.3315C1.33524 17.2585 1.24149 17.1648 1.16853 17.0556C0.999999 16.8033 0.999999 16.4522 0.999999 15.75L1 3.25C1 2.54777 1 2.19665 1.16853 1.94443C1.24149 1.83524 1.33524 1.74149 1.44443 1.66853C1.69665 1.5 2.04777 1.5 2.75 1.5L5.25 1.5Z" stroke="white" stroke-width="1.5"/>
</svg>
