<svg width="243" height="56" viewBox="0 0 243 56" fill="none" xmlns="http://www.w3.org/2000/svg">
<path d="M94.2786 21.2855C93.8544 21.0885 93.5311 20.8107 93.3038 20.4622C93.0765 20.1137 92.9149 19.75 92.819 19.3763C92.7432 19.0783 92.8796 18.9267 93.2331 18.9267C94.0059 18.9773 94.8241 18.952 95.6828 18.851C96.5414 18.75 97.3849 18.6388 98.2082 18.5126C99.0315 18.3863 99.8042 18.2701 100.527 18.159C101.249 18.0479 101.875 17.9923 102.4 17.9923C103.198 17.9923 103.845 18.1691 104.345 18.5176C104.845 18.8661 105.219 19.3308 105.466 19.9016C105.517 20.0531 105.517 20.1844 105.466 20.2955C105.416 20.4066 105.264 20.4622 105.017 20.4622C103.592 20.4369 102.239 20.5632 100.956 20.836C99.6679 21.1137 98.4557 21.336 97.3091 21.5128C96.6576 22.5835 95.9101 23.8513 95.0615 25.311C94.213 26.7707 93.3291 28.3465 92.4048 30.0436C92.9048 29.9426 93.3594 29.8769 93.7736 29.8365C94.1827 29.8012 94.5665 29.7709 94.915 29.7456C95.8646 29.6951 96.5818 29.8365 97.0667 30.1749C97.5516 30.5133 97.8849 30.9679 98.0567 31.5386C98.1829 31.9124 98.0415 32.0993 97.6425 32.0993C97.1677 32.0993 96.6424 32.1245 96.0717 32.1751C95.4959 32.2256 94.9049 32.3013 94.2938 32.3973C93.6826 32.4983 93.0715 32.6145 92.4603 32.7508C91.8492 32.8872 91.2835 33.0185 90.7582 33.1448C90.0359 34.5439 89.344 35.9228 88.6823 37.2814C88.0207 38.6401 87.4146 39.9584 86.8691 41.2312C86.7176 41.5797 86.5054 41.6302 86.2327 41.3827C85.8842 41.0847 85.6468 40.615 85.5205 39.9786C85.3942 39.3422 85.5357 38.4381 85.9347 37.2663C86.2074 36.443 86.6468 35.4025 87.2428 34.1398C87.8388 32.8822 88.5207 31.5184 89.2834 30.0588C90.046 28.5991 90.8592 27.1091 91.733 25.5837C92.6068 24.0634 93.4554 22.629 94.2786 21.2804" fill="#1C1D1C"/>
<path d="M107.194 37.9429C106.87 38.3925 106.502 38.8369 106.088 39.2713C105.673 39.7057 105.239 40.0946 104.779 40.433C104.32 40.7714 103.84 41.0391 103.34 41.2361C102.84 41.4331 102.33 41.5088 101.804 41.4583C101.133 41.4078 100.618 41.2159 100.269 40.8775C99.9205 40.5391 99.6831 40.1148 99.5569 39.6047C99.4306 39.0945 99.4053 38.5238 99.4811 37.9025C99.5569 37.2813 99.6932 36.655 99.8953 36.0337C100.32 34.7862 100.981 33.3164 101.88 31.6193C102.779 29.9222 103.84 28.2151 105.062 26.4927C105.214 26.2907 105.375 26.1947 105.547 26.1947C105.719 26.1947 105.886 26.2806 106.032 26.4574C106.881 27.7302 106.643 29.4121 105.32 31.5082C104.623 32.6042 104.062 33.574 103.638 34.4074C103.214 35.2458 102.799 36.1095 102.4 37.0085C102.001 37.9328 101.825 38.6955 101.875 39.2915C101.926 39.8926 102.163 40.2158 102.587 40.2663C102.961 40.2916 103.36 40.1603 103.784 39.8724C104.209 39.5845 104.658 39.1804 105.133 38.6551C105.608 38.1298 106.098 37.5136 106.613 36.8015C107.123 36.0893 107.628 35.3216 108.128 34.4983C109.3 32.6042 110.219 30.993 110.881 29.6697C111.542 28.3464 112.174 27.2857 112.77 26.4877C113.118 25.9876 113.431 25.9119 113.704 26.2604C113.977 26.6089 114.154 27.1594 114.229 27.907C114.305 28.6545 114.118 29.503 113.669 30.4526C113.467 30.8768 113.209 31.3567 112.881 31.8921C112.558 32.4274 112.224 32.983 111.891 33.5588C111.553 34.1346 111.229 34.7054 110.916 35.2812C110.603 35.857 110.335 36.3822 110.113 36.852C109.613 37.9227 109.406 38.8117 109.497 39.5087C109.583 40.2057 109.967 40.534 110.638 40.4835C111.037 40.4583 111.452 40.3017 111.876 40.0138C112.3 39.7259 112.724 39.342 113.149 38.8521C113.573 38.3672 113.992 37.8167 114.401 37.2055C114.815 36.5944 115.204 35.963 115.578 35.3165C115.679 35.1397 115.795 35.0488 115.932 35.0337C116.068 35.0236 116.174 35.1044 116.25 35.2761C116.326 35.4276 116.356 35.7256 116.341 36.1752C116.326 36.6247 116.184 37.1096 115.911 37.6348C115.634 38.1601 115.295 38.6652 114.881 39.1501C114.467 39.635 114.012 40.0592 113.512 40.4229C113.012 40.7866 112.487 41.0795 111.941 41.3017C111.391 41.529 110.845 41.6401 110.295 41.6401C109.073 41.6401 108.214 41.2967 107.714 40.6098C107.214 39.9229 107.042 39.0339 107.189 37.9328" fill="#1C1D1C"/>
<path d="M123.659 23.7957C123.907 24.2957 123.987 24.7705 123.902 25.22C123.816 25.6695 123.644 26.0332 123.397 26.3059C123.149 26.5787 122.806 26.6797 122.366 26.6039C121.932 26.5282 121.573 26.2403 121.3 25.7402C121.002 25.2402 120.881 24.7351 120.947 24.225C121.007 23.7148 121.189 23.2956 121.487 22.9724C121.785 22.6491 122.159 22.5784 122.609 22.7653C123.058 22.9522 123.407 23.2956 123.659 23.7957ZM117.558 41.5341C116.836 41.5341 116.255 41.3927 115.815 41.1048C115.381 40.8169 115.053 40.4331 114.84 39.9431C114.628 39.4583 114.542 38.8825 114.578 38.2208C114.613 37.5591 114.77 36.8419 115.048 36.0692C115.275 35.3974 115.583 34.6297 115.982 33.766C116.381 32.9023 116.81 32.0588 117.275 31.2204C117.74 30.3819 118.194 29.594 118.644 28.8414C119.093 28.0939 119.492 27.4676 119.841 26.9676C120.164 26.518 120.462 26.4423 120.74 26.7403C121.013 27.0383 121.189 27.5585 121.265 28.2909C121.341 29.0283 121.154 29.8667 120.704 30.8163C120.502 31.2406 120.27 31.7002 119.992 32.2002C119.72 32.7003 119.432 33.2154 119.134 33.7559C118.836 34.2913 118.548 34.8267 118.275 35.3671C118.002 35.9025 117.765 36.4076 117.563 36.8823C117.113 37.9784 116.911 38.8623 116.962 39.5189C117.012 40.1805 117.336 40.4886 117.937 40.4381C118.361 40.4381 118.8 40.2866 119.245 39.9886C119.694 39.6906 120.139 39.3017 120.573 38.8269C121.007 38.3521 121.422 37.8117 121.811 37.2005C122.199 36.5894 122.528 35.958 122.801 35.3115C122.902 35.1348 123.008 35.0539 123.119 35.0691C123.23 35.0792 123.326 35.16 123.402 35.3115C123.7 35.8873 123.614 36.6601 123.139 37.6299C122.866 38.2057 122.518 38.736 122.093 39.2209C121.669 39.7057 121.204 40.1199 120.709 40.4533C120.209 40.7917 119.694 41.0543 119.154 41.2412C118.618 41.4281 118.088 41.524 117.563 41.524" fill="#1C1D1C"/>
<path d="M146.156 33.7863C146.403 34.6601 146.348 35.5137 145.989 36.3521C145.625 37.1855 145.13 37.9431 144.494 38.6149C143.858 39.2866 143.186 39.8574 142.474 40.317C141.762 40.7817 141.171 41.0696 140.696 41.1958C140.246 41.3221 139.761 41.4282 139.236 41.514C138.711 41.5999 138.18 41.6302 137.645 41.61C137.11 41.5848 136.574 41.4837 136.034 41.312C135.498 41.1352 134.968 40.8524 134.443 40.4483C133.771 39.9483 133.19 39.2513 132.7 38.3522C132.215 37.4532 131.958 36.2309 131.933 34.6853C131.907 33.3368 132.089 32.0286 132.478 30.7558C132.867 29.483 133.377 28.2708 134.014 27.1242C134.65 25.9777 135.372 24.9019 136.185 23.9069C136.994 22.9068 137.837 22.0229 138.711 21.2501C139.585 20.4774 140.453 19.8208 141.312 19.2854C142.176 18.75 142.954 18.3661 143.651 18.1439C144.701 17.7954 145.641 17.6236 146.474 17.6388C147.307 17.654 148.05 17.8964 148.701 18.3712C149.227 18.7449 149.641 19.1591 149.954 19.6086C150.267 20.0581 150.494 20.5329 150.646 21.033C150.969 22.0583 150.883 23.1442 150.383 24.2907C150.161 24.7908 149.908 25.3767 149.636 26.0484C149.363 26.7252 149.126 27.3364 148.924 27.8819C148.873 28.0334 148.782 28.1496 148.646 28.2354C148.509 28.3213 148.338 28.2657 148.141 28.0688C147.716 27.7708 147.388 27.3414 147.151 26.7757C146.913 26.2151 146.918 25.4575 147.171 24.513C147.297 24.0382 147.459 23.5634 147.656 23.0886C147.853 22.6139 148.03 22.1593 148.181 21.7249C148.333 21.2905 148.424 20.8966 148.464 20.5481C148.499 20.1996 148.418 19.9268 148.222 19.7248C147.924 19.4268 147.353 19.3864 146.519 19.6137C145.681 19.8359 144.736 20.2804 143.676 20.942C142.615 21.6037 141.524 22.4623 140.403 23.523C139.282 24.5837 138.271 25.7858 137.372 27.1344C136.499 28.4577 135.842 29.786 135.408 31.1194C134.973 32.4529 134.695 33.6853 134.584 34.8066C134.473 35.9278 134.503 36.9077 134.68 37.7461C134.852 38.5846 135.13 39.1755 135.504 39.524C136.029 39.9988 136.665 40.1958 137.413 40.1251C138.16 40.0493 138.948 39.7513 139.771 39.226C140.595 38.7007 141.398 37.9987 142.186 37.1097C142.974 36.2258 143.651 35.2207 144.226 34.0944C143.63 34.2207 143.039 34.3267 142.469 34.4126C141.893 34.4984 141.383 34.5692 140.933 34.6197C139.984 34.7207 139.216 34.5944 138.63 34.2459C138.044 33.8974 137.615 33.4226 137.337 32.8216C137.135 32.4226 137.261 32.2205 137.711 32.2205C138.433 32.2205 139.155 32.165 139.883 32.0539C140.605 31.9427 141.307 31.8266 141.979 31.7154C142.65 31.6043 143.307 31.4882 143.943 31.377C144.58 31.2659 145.186 31.2104 145.757 31.2104C146.706 31.1851 147.449 31.3568 147.984 31.7154C148.52 32.0791 148.913 32.5438 149.161 33.1196C149.262 33.3216 149.287 33.4832 149.237 33.6045C149.186 33.7307 149.035 33.7661 148.787 33.7156C148.439 33.6651 148.04 33.655 147.59 33.6802C147.141 33.7055 146.666 33.7408 146.166 33.7913" fill="#1C1D1C"/>
<path d="M159.03 31.9174C159.328 30.7203 159.429 29.796 159.328 29.1495C159.227 28.5535 159.04 28.2808 158.768 28.3464C158.495 28.4071 158.308 28.7152 158.207 29.2657C158.106 29.7657 158.146 30.2607 158.318 30.7607C158.49 31.2608 158.727 31.6446 159.03 31.9224M158.768 32.9326C158.545 32.8316 158.308 32.6851 158.055 32.4831C157.656 32.1851 157.273 31.7355 156.914 31.1345C156.55 30.5385 156.358 29.8869 156.333 29.1899C155.833 29.6142 155.328 30.1243 154.818 30.7254C154.308 31.3264 153.848 31.9881 153.454 32.7104C153.055 33.4326 152.722 34.17 152.464 34.9176C152.201 35.6651 152.02 36.3722 151.924 37.0339C151.823 37.6955 151.797 38.2764 151.848 38.7764C151.898 39.2764 152.045 39.6249 152.297 39.8219C152.545 40.0442 152.873 40.13 153.272 40.0644C153.671 40.0037 154.111 39.8118 154.58 39.4835C155.055 39.1603 155.54 38.7057 156.04 38.1147C156.54 37.5288 157.015 36.8015 157.464 35.9227C157.737 35.3974 157.99 34.8822 158.212 34.3721C158.434 33.8619 158.621 33.3821 158.773 32.9326M162.253 32.9326C162.005 33.2104 161.667 33.372 161.242 33.4175C161.04 34.2155 160.758 35.0337 160.384 35.8671C160.01 36.7005 159.561 37.4834 159.035 38.2057C158.51 38.9279 157.939 39.5694 157.313 40.1351C156.692 40.6957 156.03 41.0897 155.328 41.3119C154.656 41.5341 153.888 41.5594 153.025 41.3877C152.166 41.2109 151.358 40.6401 150.61 39.6653C150.186 39.1148 149.903 38.5138 149.767 37.8521C149.631 37.1904 149.6 36.4985 149.676 35.7762C149.752 35.0539 149.919 34.3064 150.181 33.5336C150.444 32.7609 150.787 31.9982 151.212 31.2507C151.934 29.9779 152.828 28.8717 153.888 27.9373C154.949 27.0029 156.04 26.4827 157.161 26.3817C157.737 26.3564 158.207 26.4372 158.586 26.6241C158.965 26.811 159.333 27.1545 159.707 27.6545C159.929 27.9525 160.157 28.2101 160.379 28.4222C160.601 28.6343 160.808 28.8768 160.995 29.1495C161.182 29.4223 161.318 29.7607 161.404 30.1597C161.49 30.5587 161.51 31.0941 161.46 31.7709C161.434 31.9224 161.424 32.0639 161.424 32.2002C161.424 32.3366 161.409 32.4831 161.389 32.6295C161.515 32.6295 161.631 32.6194 161.743 32.5942C161.854 32.5689 161.985 32.5538 162.136 32.5538C162.263 32.5538 162.328 32.5942 162.344 32.6649C162.359 32.7356 162.323 32.8265 162.253 32.9275" fill="#1C1D1C"/>
<path d="M167.561 30.7961C167.01 31.7961 166.404 32.8012 165.748 33.8114C165.086 34.8216 164.394 35.8368 163.672 36.8621C163.823 37.4126 163.995 37.9076 164.197 38.3572C164.399 38.8067 164.621 39.1804 164.869 39.4784C165.116 39.7764 165.389 39.9936 165.672 40.135C165.96 40.2714 166.253 40.2916 166.551 40.1906C166.975 40.0643 167.273 39.6502 167.45 38.938C167.627 38.2258 167.723 37.3924 167.748 36.4277C167.773 35.4681 167.753 34.4781 167.692 33.4528C167.632 32.4275 167.586 31.5436 167.561 30.7961ZM163.333 34.8367C164.106 33.7912 164.879 32.6901 165.652 31.5436C166.425 30.3971 167.086 29.3465 167.637 28.402C167.738 27.6797 167.884 27.1039 168.086 26.6796C168.288 26.2554 168.586 25.8715 168.985 25.518C169.41 25.1442 169.809 24.9119 170.182 24.826C170.556 24.7401 170.829 24.7805 171.006 24.9573C171.208 25.1593 171.268 25.3765 171.192 25.6139C171.117 25.8513 170.955 26.1796 170.708 26.6039C170.632 26.7302 170.561 26.8463 170.501 26.9574C170.44 27.0686 170.369 27.1898 170.293 27.311C170.218 28.1848 170.197 29.0131 170.238 29.8011C170.273 30.589 170.334 31.3517 170.405 32.1042C170.48 32.8518 170.541 33.569 170.591 34.2559C170.642 34.9428 170.652 35.6095 170.627 36.256C170.576 36.9783 170.45 37.7056 170.253 38.4279C170.051 39.1501 169.617 39.736 168.945 40.1855C170.192 39.7108 171.223 38.9835 172.031 37.9935C172.844 37.0086 173.486 36.0035 173.96 34.9832C174.061 34.7812 174.183 34.6953 174.334 34.7206C174.486 34.7458 174.597 34.8317 174.672 34.9832C174.748 35.16 174.758 35.4681 174.708 35.9176C174.657 36.3671 174.47 36.8773 174.147 37.4531C173.425 38.7511 172.475 39.7512 171.304 40.4482C170.132 41.1452 168.869 41.519 167.526 41.5695C166.975 41.5947 166.44 41.5695 165.914 41.4937C165.389 41.4179 164.889 41.2765 164.419 41.0644C163.945 40.8523 163.505 40.5593 163.091 40.1855C162.677 39.8118 162.313 39.337 161.985 38.7612C161.763 38.3369 161.596 37.8773 161.5 37.3773C161.399 36.8773 161.369 36.3924 161.409 35.9176C161.444 35.4428 161.556 34.9984 161.727 34.5892C161.899 34.1801 162.152 33.8367 162.475 33.5589C162.95 33.1599 163.212 33.2861 163.263 33.9326C163.288 34.0842 163.298 34.2306 163.298 34.3822C163.298 34.5337 163.308 34.6801 163.333 34.8317" fill="#1C1D1C"/>
<path d="M177.855 26.4171C177.203 26.4171 176.678 26.306 176.264 26.0787C175.849 25.8514 175.572 25.6443 175.42 25.4423C175.218 25.1696 175.173 24.9675 175.269 24.8413C175.37 24.715 175.557 24.6645 175.829 24.6897C176.355 24.715 176.88 24.7099 177.4 24.6695C177.925 24.6342 178.435 24.5887 178.936 24.5382C179.511 23.4927 180.047 22.5633 180.547 21.7502C181.047 20.942 181.456 20.3208 181.784 19.8965C181.961 19.649 182.128 19.5278 182.289 19.543C182.451 19.5531 182.582 19.6743 182.683 19.8965C182.885 20.4218 182.966 21.0127 182.926 21.6744C182.89 22.3361 182.643 23.1543 182.198 24.124C182.921 24.0988 183.451 24.22 183.789 24.4776C184.128 24.7402 184.37 24.9978 184.517 25.2453C184.789 25.7201 184.643 25.9575 184.067 25.9575C183.643 25.907 183.168 25.9019 182.643 25.9373C182.118 25.9726 181.618 26.0282 181.148 26.104C180.774 26.7303 180.375 27.4172 179.951 28.1647C179.526 28.9122 179.092 29.6951 178.643 30.5032C178.193 31.3114 177.749 32.1397 177.314 32.9731C176.88 33.8115 176.486 34.6146 176.137 35.3874C175.839 36.0591 175.632 36.7056 175.521 37.3168C175.41 37.9279 175.39 38.4684 175.466 38.9432C175.541 39.4179 175.698 39.7917 175.935 40.0644C176.173 40.3372 176.491 40.4887 176.89 40.514C177.314 40.5392 177.759 40.4029 178.218 40.0998C178.678 39.8018 179.143 39.4028 179.602 38.9028C180.062 38.4027 180.506 37.8219 180.931 37.1602C181.355 36.4986 181.739 35.8218 182.092 35.1197C182.219 34.8924 182.36 34.7712 182.522 34.7459C182.683 34.7207 182.804 34.8469 182.875 35.1197C182.976 35.4177 182.986 35.746 182.911 36.0945C182.835 36.443 182.698 36.8319 182.501 37.2562C182.375 37.5289 182.138 37.9128 181.789 38.3977C181.441 38.8826 181.001 39.3624 180.481 39.8372C179.956 40.3119 179.36 40.716 178.683 41.0544C178.011 41.3928 177.299 41.5494 176.552 41.5241C175.93 41.4989 175.354 41.317 174.829 40.9837C174.304 40.6453 173.9 40.1655 173.612 39.5442C173.324 38.923 173.188 38.1704 173.198 37.2966C173.208 36.4228 173.44 35.453 173.89 34.3772C174.289 33.4277 174.849 32.2357 175.577 30.8012C176.299 29.3668 177.062 27.9021 177.86 26.402" fill="#1C1D1C"/>
<path d="M184.966 33.7509C185.416 34.0489 185.85 34.1903 186.274 34.1651C186.699 34.1398 187.098 34.0136 187.471 33.7913C187.845 33.5691 188.194 33.2812 188.517 32.9276C188.84 32.5791 189.138 32.2306 189.416 31.8821C189.714 31.4831 189.982 31.079 190.219 30.6649C190.456 30.2507 190.648 29.8618 190.8 29.488C190.951 29.1143 191.037 28.791 191.063 28.5132C191.088 28.2405 191.037 28.0536 190.911 27.9526C190.709 27.801 190.386 27.8162 189.936 27.9879C189.487 28.1647 188.987 28.488 188.441 28.9627C187.891 29.4375 187.335 30.0234 186.774 30.7204C186.214 31.4174 185.709 32.2155 185.259 33.1145C185.209 33.2408 185.158 33.3519 185.108 33.4529C185.057 33.5539 185.007 33.655 184.956 33.7509M184.618 34.5388C184.017 36.2612 183.901 37.6653 184.264 38.7512C184.628 39.8372 185.305 40.4028 186.305 40.4534C187.077 40.5039 187.825 40.3675 188.552 40.0442C189.275 39.721 189.956 39.2967 190.593 38.7714C191.229 38.2462 191.815 37.6653 192.351 37.034C192.886 36.3975 193.356 35.7662 193.755 35.1449C193.856 34.9934 193.967 34.9227 194.093 34.9227C194.219 34.9227 194.32 35.0086 194.391 35.1854C194.467 35.3369 194.467 35.6349 194.391 36.0844C194.315 36.5339 194.103 37.0087 193.755 37.5087C192.957 38.6553 191.896 39.6149 190.573 40.3927C189.249 41.1655 187.865 41.5645 186.416 41.5898C185.219 41.615 184.229 41.3524 183.441 40.8019C182.653 40.2513 182.087 39.5442 181.739 38.6704C181.39 37.7966 181.269 36.7865 181.385 35.6399C181.496 34.4934 181.855 33.3165 182.451 32.1195C183.052 30.9225 183.724 29.8971 184.471 29.0486C185.219 28.2001 185.966 27.5384 186.719 27.0636C187.466 26.5889 188.179 26.2959 188.85 26.1848C189.522 26.0737 190.098 26.1545 190.573 26.4272C191.047 26.7 191.457 26.9879 191.81 27.2859C192.159 27.5839 192.482 27.9475 192.785 28.3718C192.962 28.5991 193.068 28.8971 193.103 29.2708C193.138 29.6446 193.118 30.0638 193.027 30.5234C192.941 30.9831 192.78 31.473 192.542 31.9831C192.305 32.4933 191.987 32.9882 191.588 33.463C191.138 34.0388 190.648 34.5085 190.108 34.8874C189.573 35.2611 189.002 35.5187 188.406 35.6551C187.805 35.7914 187.189 35.7763 186.552 35.5995C185.916 35.4227 185.274 35.0742 184.623 34.554" fill="#1C1D1C"/>
<path d="M201.846 23.7957C202.094 24.2957 202.174 24.7705 202.089 25.22C202.003 25.6695 201.831 26.0332 201.584 26.3059C201.336 26.5787 200.993 26.6797 200.553 26.6039C200.119 26.5282 199.76 26.2403 199.487 25.7402C199.189 25.2402 199.068 24.7351 199.134 24.225C199.195 23.7148 199.376 23.2956 199.674 22.9724C199.972 22.6491 200.346 22.5784 200.796 22.7653C201.245 22.9522 201.594 23.2956 201.846 23.7957ZM195.745 41.5341C195.023 41.5341 194.442 41.3927 194.002 41.1048C193.568 40.8169 193.24 40.4331 193.027 39.9431C192.815 39.4583 192.729 38.8825 192.765 38.2208C192.8 37.5591 192.957 36.8419 193.235 36.0692C193.462 35.3974 193.77 34.6297 194.169 33.766C194.568 32.9023 194.997 32.0588 195.462 31.2204C195.922 30.387 196.381 29.594 196.826 28.8414C197.275 28.0939 197.674 27.4676 198.023 26.9676C198.346 26.518 198.644 26.4423 198.922 26.7403C199.194 27.0383 199.371 27.5585 199.447 28.2909C199.523 29.0283 199.336 29.8667 198.886 30.8163C198.684 31.2406 198.452 31.7002 198.174 32.2002C197.901 32.7003 197.614 33.2154 197.316 33.7559C197.018 34.2913 196.73 34.8267 196.457 35.3671C196.184 35.9025 195.947 36.4076 195.745 36.8823C195.295 37.9784 195.093 38.8623 195.144 39.5189C195.194 40.1805 195.518 40.4886 196.119 40.4381C196.543 40.4381 196.977 40.2866 197.427 39.9886C197.876 39.6906 198.321 39.3017 198.755 38.8269C199.189 38.3521 199.604 37.8117 199.993 37.2005C200.381 36.5894 200.71 35.958 200.982 35.3115C201.084 35.1348 201.19 35.0539 201.301 35.0691C201.412 35.0792 201.508 35.16 201.584 35.3115C201.882 35.8873 201.796 36.6601 201.321 37.6299C201.048 38.2057 200.7 38.736 200.275 39.2209C199.851 39.7057 199.386 40.1199 198.891 40.4533C198.391 40.7917 197.876 41.0543 197.336 41.2412C196.8 41.4281 196.27 41.524 195.745 41.524" fill="#1C1D1C"/>
<path d="M214.781 32.2458H212.559V31.3569H218.049V32.2458H215.832V38.231H214.781V32.2458Z" fill="#1C1D1C"/>
<path d="M222.221 34.554L224.342 38.226H223.155L221.433 35.15L222.221 34.554ZM221.509 34.5894C222.514 34.5894 223.059 34.1702 223.059 33.3469C223.059 32.5236 222.509 32.2054 221.509 32.2054H220.473V34.5944H221.509V34.5894ZM219.413 31.3569H221.635C223.044 31.3569 224.11 31.862 224.11 33.3469C224.11 34.8318 223.049 35.4379 221.635 35.4379H220.473V38.231H219.413V31.3569Z" fill="#1C1D1C"/>
<path d="M225.686 37.3421H227.368V32.2458H225.686V31.3569H230.106V32.2458H228.424V37.3421H230.106V38.231H225.686V37.3421Z" fill="#1C1D1C"/>
<path d="M234.106 34.761C235.212 34.761 235.742 34.3367 235.742 33.4276C235.742 32.5184 235.197 32.2053 234.106 32.2053H233.09V34.761H234.106ZM232.04 31.3567H234.207C235.717 31.3567 236.788 31.877 236.788 33.4276C236.788 34.9782 235.702 35.6045 234.207 35.6045H233.09V38.2259H232.035V31.3517L232.04 31.3567Z" fill="#1C1D1C"/>
<path d="M237.995 37.347L238.611 36.6197C239.131 37.1096 239.828 37.4328 240.576 37.4328C241.444 37.4328 241.929 37.0338 241.929 36.4782C241.929 35.8065 241.429 35.6196 240.747 35.3317L239.778 34.9074C239.075 34.6296 238.308 34.1246 238.308 33.1093C238.308 32.0386 239.272 31.2304 240.626 31.2304C241.475 31.2304 242.252 31.5688 242.783 32.0941L242.237 32.7659C241.778 32.382 241.278 32.1547 240.576 32.1547C239.874 32.1547 239.368 32.4881 239.368 33.0538C239.368 33.6498 239.959 33.867 240.565 34.1044L241.495 34.5135C242.359 34.8468 243 35.3519 243 36.357C243 37.4581 242.071 38.3622 240.51 38.3622C239.525 38.3622 238.631 37.9783 237.984 37.352" fill="#1C1D1C"/>
<path d="M77.4541 9.33005C81.4442 9.33005 85.4344 9.33005 89.4245 9.33005C89.7629 9.33005 90.1114 9.33006 90.4448 9.40077C90.5862 9.43107 90.7731 9.64321 90.7781 9.77958C90.7832 9.91595 90.6064 10.1584 90.4801 10.1836C90.0761 10.2645 89.6569 10.2998 89.2427 10.2998C81.5654 10.3049 73.8882 10.3301 66.216 10.2796C64.8624 10.2695 64.0593 10.7039 63.433 11.9262C61.4127 15.881 59.2913 19.7853 57.2104 23.7047C56.5639 24.9169 56.7407 25.2351 58.1448 25.2401C62.4784 25.2502 66.8069 25.2401 71.1405 25.2452C73.3175 25.2452 73.969 25.917 73.9539 28.1292C73.9033 34.0185 73.8427 39.9077 73.7922 45.797C73.772 47.9133 74.0397 48.186 76.0954 48.186C78.8683 48.186 81.6412 48.186 84.4192 48.186C84.7222 48.186 85.0505 48.1355 85.3233 48.2315C85.5202 48.3022 85.7071 48.5598 85.7778 48.7719C85.8031 48.8527 85.5152 49.1204 85.3334 49.1709C85.0455 49.2467 84.7323 49.2164 84.4293 49.2164C81.6917 49.2164 78.9592 49.2164 76.2217 49.2164C73.2821 49.2164 72.7316 48.6608 72.7518 45.6657C72.7922 39.9279 72.8427 34.1902 72.8831 28.4525C72.8982 26.4018 72.7164 26.2301 70.7062 26.2301C66.4887 26.2301 62.2713 26.2352 58.0539 26.2301C55.9073 26.2251 55.2608 25.1593 56.281 23.2299C58.4529 19.0983 60.6803 14.992 62.8471 10.8605C63.4279 9.74927 64.2613 9.3048 65.5089 9.31995C69.499 9.36541 73.4892 9.33511 77.4793 9.33511" fill="#1C1D1C"/>
<path d="M57.4834 30.0333C56.7308 28.3463 54.4479 27.5786 52.7811 28.4473C50.4375 29.6747 48.0788 30.8717 45.7655 32.1597C40.2955 35.2104 34.4971 36.8166 28.1886 36.5287C24.4864 36.3569 20.9963 35.6246 17.8698 33.5335C14.8191 31.493 11.7634 29.4575 8.69247 27.4473C8.31365 27.1998 7.90959 26.9826 7.48532 26.7654C7.31359 26.7048 7.14186 26.6391 6.96509 26.5836C6.56102 26.4472 6.19736 26.4018 5.84885 26.422C5.21245 26.7755 4.58615 27.0887 4.08612 27.5382C2.79816 28.7049 1.59606 29.9676 0.404066 31.2303C0.161626 31.4879 0.131321 31.9375 0 32.3011C0.404066 32.185 0.91925 32.19 1.19199 31.9375C2.37894 30.8364 3.48002 29.6444 4.6316 28.508C5.89431 27.2654 6.49031 27.2402 7.92979 28.2352C10.233 29.8313 12.4654 31.5637 14.8848 32.9628C17.4961 34.478 20.1679 36.1751 23.0368 36.9075C28.1028 38.2106 33.3253 37.9328 38.3863 36.468C43.432 35.0084 47.9071 32.2658 52.5134 29.8414C54.5337 28.7807 54.5539 28.6999 56.1803 30.2252C56.3823 30.4121 56.5743 30.6394 56.8167 30.7404C56.9935 30.8162 57.3218 30.7859 57.4329 30.6647C57.5491 30.5384 57.5592 30.2101 57.4834 30.0333Z" fill="#1C1D1C"/>
<path d="M80.4748 18.0629C80.4748 17.2699 80.4546 16.4719 80.4798 15.6789C80.5 15.0627 80.2525 14.7698 79.6212 14.7748C78.3736 14.79 77.121 14.795 75.8735 14.7748C75.232 14.7647 74.9997 15.0577 75.0047 15.6688C75.0148 17.2194 74.9694 18.7751 75.0451 20.3206C75.0603 20.6085 75.525 21.0985 75.8078 21.1187C77.0857 21.2045 78.3787 21.2045 79.6616 21.1187C79.9495 21.0985 80.3889 20.6388 80.4394 20.3358C80.5556 19.5984 80.4748 18.8256 80.4798 18.073M68.4841 17.8811C68.4841 18.6741 68.5094 19.4721 68.474 20.2651C68.4488 20.8964 68.7063 21.1692 69.3276 21.1591C70.5751 21.149 71.8277 21.1389 73.0753 21.1641C73.7925 21.1793 73.9845 20.8055 73.9693 20.1691C73.9491 19.1842 73.9693 18.1993 73.9643 17.2144C73.939 14.4314 74.2622 14.795 71.5601 14.7799C68.4791 14.7597 68.4791 14.7799 68.4791 17.876M74.4188 22.1591C72.5601 22.1591 70.6964 22.1389 68.8377 22.1692C67.8224 22.1844 67.4032 21.7702 67.4335 20.7399C67.484 18.8811 67.4689 17.0224 67.4335 15.1587C67.4184 14.1536 67.8224 13.7041 68.8478 13.7142C72.6056 13.7394 76.3634 13.7344 80.1212 13.7142C81.0607 13.7142 81.5354 14.0879 81.5304 15.0577C81.5152 16.9921 81.5102 18.9266 81.5304 20.8661C81.5405 21.7904 81.1112 22.1692 80.2172 22.1642C78.2827 22.149 76.3432 22.1642 74.4087 22.1642" fill="#1C1D1C"/>
<path d="M24.7541 47.9992H43.6644C43.8564 47.9992 44.0634 47.9487 44.2301 48.0093C44.6089 48.1457 44.9675 48.3427 45.3363 48.5144C44.9625 48.6811 44.5837 48.9942 44.2099 48.9942C35.7397 49.0245 27.2745 49.0144 18.8093 49.0144C14.4808 49.0144 10.1522 49.0144 5.82366 49.0144C5.4802 49.0144 5.12664 49.0548 4.80339 48.969C4.60136 48.9134 4.45994 48.6508 4.28821 48.4841C4.46499 48.3275 4.62661 48.0901 4.82865 48.0396C5.1519 47.9588 5.50546 48.0043 5.84891 48.0043C12.1523 48.0043 18.4558 48.0043 24.7592 48.0043" fill="#1C1D1C"/>
<path d="M59.9734 43.6554C57.044 43.6554 54.66 45.9788 54.6145 48.878C54.5741 51.7216 57.15 54.2925 59.9987 54.2622C62.8171 54.2318 65.3021 51.7216 65.3021 48.9083C65.3021 46.0394 62.8928 43.6605 59.9734 43.6605M66.2769 48.9285C66.2769 52.5297 63.5292 55.2471 59.9179 55.2269C56.4025 55.2067 53.5791 52.4237 53.569 48.9638C53.5589 45.4889 56.448 42.5745 59.9381 42.5341C63.4029 42.4937 66.2769 45.3929 66.2718 48.9285" fill="#1C1D1C"/>
<path d="M60.5847 34.9125C63.8778 34.9125 66.8628 34.9327 69.8529 34.8721C70.06 34.8721 70.4136 34.3064 70.4237 33.9933C70.4843 32.5134 70.4338 31.0335 70.459 29.5485C70.4691 28.8667 70.2065 28.604 69.5196 28.6141C67.6962 28.6444 65.8729 28.604 64.0495 28.6444C63.7616 28.6495 63.3222 28.8263 63.2212 29.0485C62.3524 30.887 61.5443 32.7609 60.5847 34.9176M65.3981 35.9732C63.8424 35.9732 62.2868 35.9883 60.7362 35.9681C59.5644 35.953 59.231 35.4428 59.6856 34.367C60.4836 32.4831 61.3271 30.6244 62.1201 28.7404C62.4535 27.9474 62.9585 27.5484 63.8475 27.5585C65.9335 27.5888 68.0195 27.5838 70.1055 27.5585C71.1156 27.5484 71.5298 27.9626 71.4995 28.998C71.4439 30.8516 71.454 32.7154 71.4995 34.569C71.5247 35.6095 71.0702 36.0035 70.0701 35.9833C68.5144 35.953 66.9588 35.9782 65.4082 35.9732" fill="#1C1D1C"/>
<path d="M46.2807 43.2463C46.3261 42.2968 46.4069 41.3523 46.4069 40.4027C46.4069 38.5087 47.3615 37.3672 49.099 36.7762C51.0739 36.0994 53.0286 35.367 55.0135 34.7256C56.1449 34.3619 56.8874 33.6851 57.3773 32.6042C58.1198 30.9829 58.9229 29.3919 59.7664 27.8211C59.9128 27.5433 60.3624 27.4221 60.6705 27.2302C60.6806 27.5686 60.8169 27.9625 60.6907 28.2302C59.7967 30.1142 58.938 32.0234 57.8774 33.8164C57.4531 34.5286 56.6248 35.1499 55.8368 35.4782C53.8822 36.2964 51.8416 36.9126 49.8415 37.6248C47.8868 38.3218 47.4373 38.9279 47.3767 40.9583C47.3312 42.5897 47.2908 44.2211 47.3009 45.8576C47.3161 47.8274 47.6949 48.186 49.6395 48.1911C50.3971 48.1911 51.1648 48.1406 51.9174 48.2214C52.2103 48.2517 52.478 48.5648 52.7558 48.7467C52.4932 48.9032 52.2356 49.1861 51.973 49.1962C50.8365 49.2366 49.69 49.2518 48.5586 49.176C47.3211 49.0952 46.5686 48.4537 46.417 47.2213C46.2554 45.9081 46.2706 44.5747 46.21 43.2514C46.2352 43.2514 46.2605 43.2514 46.2908 43.2514" fill="#1C1D1C"/>
<path d="M69.6357 49.2013C69.0296 49.2013 68.4185 49.2367 67.8174 49.1811C67.6205 49.1609 67.4487 48.8983 67.2618 48.7467C67.4285 48.5699 67.5952 48.2467 67.7669 48.2416C69.0549 48.1962 70.3428 48.1962 71.6308 48.2416C71.8025 48.2467 71.9642 48.5699 72.1258 48.7467C71.9389 48.8983 71.7621 49.1659 71.5601 49.1811C70.9186 49.2367 70.2721 49.2013 69.6307 49.2013" fill="#1C1D1C"/>
<path d="M59.9333 46.7214C58.6857 46.7416 57.6655 47.8275 57.7059 49.1054C57.7463 50.3277 58.7868 51.3328 59.9888 51.3126C61.1808 51.2924 62.2365 50.2367 62.2466 49.0549C62.2617 47.8376 61.1354 46.7062 59.9333 46.7214ZM63.2769 49.0397C63.2719 50.8681 61.7667 52.3783 59.9535 52.3732C58.1554 52.3732 56.5896 50.8125 56.5846 49.0296C56.5846 47.2063 58.0746 45.7567 59.9636 45.7516C61.8779 45.7516 63.282 47.1406 63.2769 49.0347" fill="#1C1D1C"/>
<path d="M31.2951 24.2451C27.5979 20.8408 27.1231 15.4213 29.3859 11.6079C34.0478 16.2699 38.7097 20.9368 43.3716 25.5937C40.1088 27.5887 34.9822 27.6393 31.2951 24.2451ZM29.2697 25.6795C28.6333 25.0229 28.5424 24.0178 29.0526 23.2198C29.8102 24.2754 30.7092 25.1795 31.7699 25.9321C30.9012 26.4473 29.9112 26.3462 29.2697 25.6795ZM43.8818 24.634C41.7604 22.5127 39.6441 20.3964 37.5228 18.275C37.4773 18.2296 37.4066 18.2043 37.341 18.1639C37.6339 17.871 37.8865 17.6336 38.1188 17.3861C38.2451 17.2497 38.3562 17.1942 38.5582 17.2548C38.9623 17.376 39.4118 17.179 39.6643 16.8254C39.9169 16.4668 39.927 15.9921 39.6896 15.6234C39.4522 15.2496 39.0077 15.0577 38.5885 15.1435C37.942 15.2698 37.5632 15.891 37.745 16.5224C37.7602 16.578 37.7804 16.6689 37.745 16.7042C37.4571 17.0073 37.1541 17.3002 36.8207 17.6285C36.7753 17.5629 36.7399 17.5023 36.6945 17.4517C34.5731 15.3254 32.4518 13.204 30.3254 11.0827C29.6991 10.4564 28.7748 10.5877 28.3555 11.3655C27.3807 13.1788 26.9161 15.1132 27.0019 17.179C27.0777 18.9569 27.5373 20.6237 28.401 22.1844C28.4616 22.2955 28.4667 22.3611 28.3808 22.4672C27.5373 23.5026 27.4818 24.932 28.2495 26.0129C28.3404 26.1442 28.3404 26.2301 28.2747 26.3664C26.5777 29.6848 24.8856 33.0083 23.1936 36.3267C23.1936 36.3267 23.1936 36.3267 23.1936 36.3317C23.5674 36.3317 23.9361 36.3317 24.3098 36.3519C25.921 33.1901 27.5272 30.0384 29.1334 26.8917C29.4415 26.9978 29.7294 27.0938 30.0122 27.1998C30.0577 27.215 30.088 27.2756 30.1132 27.3211C30.9517 28.9626 31.7851 30.6041 32.6184 32.2456C33.3862 33.7508 34.1539 35.2559 34.9216 36.761C34.9974 36.761 35.0782 36.756 35.154 36.7509C35.4166 36.7105 35.6843 36.6802 35.952 36.6651C35.9267 36.5439 35.8863 36.4176 35.8207 36.3014C35.2196 35.1751 34.6539 34.0285 34.0731 32.8921C33.2851 31.3516 32.5023 29.8061 31.7143 28.2656C31.5426 27.9272 31.3709 27.5837 31.1941 27.2402C31.2295 27.2251 31.2547 27.215 31.28 27.2049C31.7598 27.0837 32.1992 26.8766 32.5679 26.5533C32.6487 26.4826 32.7094 26.5331 32.77 26.5685C34.1236 27.3211 35.5681 27.7706 37.1086 27.9272C39.3966 28.1595 41.5584 27.7251 43.5838 26.6341C44.3919 26.1998 44.5182 25.2856 43.8717 24.6391" fill="#1C1D1C"/>
<path d="M38.7146 8.28973C38.9671 8.35539 39.3004 8.416 39.6237 8.52207C43.3765 9.74437 45.7251 12.2799 46.6595 16.1185C46.6797 16.2094 46.6999 16.3054 46.6898 16.3963C46.6746 16.5731 46.5181 16.7095 46.3413 16.7196C46.1494 16.7297 45.9978 16.6135 45.9473 16.4115C45.8918 16.1791 45.8514 15.9468 45.7807 15.7195C44.6745 12.1183 42.2804 9.906 38.6186 9.04736C38.3408 8.9817 38.1994 8.77966 38.2852 8.54733C38.3408 8.39075 38.4772 8.29478 38.7146 8.29478" fill="#1C1D1C"/>
<path d="M44.5936 16.7145C44.5936 16.9367 44.4623 17.0933 44.2703 17.1186C44.0683 17.1489 43.9067 17.0226 43.8461 16.8105C43.7248 16.3811 43.6339 15.9367 43.4622 15.5275C42.4773 13.1587 40.7196 11.7041 38.2195 11.1333C38.0023 11.0828 37.8861 10.9818 37.8608 10.8202C37.8204 10.5474 38.0427 10.3302 38.3154 10.3858C39.8054 10.6838 41.1085 11.3505 42.2147 12.391C43.4269 13.5325 44.2047 14.9214 44.5582 16.5428C44.5734 16.6084 44.5835 16.6741 44.5885 16.7145" fill="#1C1D1C"/>
<path d="M37.4467 12.8555C37.4467 12.608 37.6436 12.4363 37.9012 12.4818C38.5932 12.608 39.2397 12.8606 39.8357 13.2394C41.2449 14.1334 42.1389 15.3961 42.4874 17.0326C42.5429 17.28 42.4217 17.4821 42.1995 17.5275C41.9924 17.5679 41.8055 17.4265 41.755 17.1841C41.558 16.2396 41.1338 15.4163 40.4721 14.7142C39.7347 13.9313 38.8356 13.4465 37.7901 13.2242C37.5729 13.1788 37.4517 13.0475 37.4467 12.8555Z" fill="#1C1D1C"/>
<path d="M50.4931 3.461L50.877 4.63784C50.9124 4.74391 51.0134 4.81462 51.1245 4.81462H52.3619C52.6094 4.81462 52.7155 5.13282 52.5135 5.2793L51.5134 6.00662C51.4225 6.07228 51.3871 6.18845 51.4225 6.29451L51.8064 7.47135C51.8821 7.70874 51.6094 7.90573 51.4073 7.75925L50.4073 7.03193C50.3164 6.96627 50.1951 6.96627 50.1042 7.03193L49.1042 7.75925C48.9021 7.90573 48.6294 7.70874 48.7052 7.47135L49.089 6.29451C49.1244 6.18845 49.089 6.07228 48.9981 6.00662L47.998 5.2793C47.796 5.13282 47.9021 4.81462 48.1496 4.81462H49.387C49.4981 4.81462 49.5991 4.74391 49.6345 4.63784L50.0184 3.461C50.0941 3.22361 50.4325 3.22361 50.5083 3.461" fill="#1C1D1C"/>
<path d="M14.5008 17.4114L14.8846 18.5882C14.92 18.6943 15.021 18.765 15.1321 18.765H16.3696C16.6171 18.765 16.7231 19.0832 16.5211 19.2297L15.521 19.957C15.4301 20.0227 15.3948 20.1388 15.4301 20.2449L15.814 21.4217C15.8898 21.6591 15.617 21.8561 15.415 21.7096L14.4149 20.9823C14.324 20.9167 14.2028 20.9167 14.1119 20.9823L13.1118 21.7096C12.9098 21.8561 12.637 21.6591 12.7128 21.4217L13.0966 20.2449C13.132 20.1388 13.0966 20.0227 13.0057 19.957L12.0057 19.2297C11.8036 19.0832 11.9047 18.765 12.1572 18.765H13.3946C13.5058 18.765 13.6068 18.6943 13.6421 18.5882L14.026 17.4114C14.1018 17.174 14.4402 17.174 14.5159 17.4114" fill="#1C1D1C"/>
<path d="M24.9914 0.178042L25.3753 1.35488C25.4107 1.46095 25.5117 1.53166 25.6228 1.53166H26.8602C27.1077 1.53166 27.2138 1.84986 27.0118 1.99634L26.0117 2.72366C25.9208 2.78932 25.8854 2.90549 25.9208 3.01155L26.3047 4.1884C26.3804 4.42578 26.1077 4.62277 25.9056 4.47629L24.9056 3.74897C24.8147 3.68331 24.6934 3.68331 24.6025 3.74897L23.6025 4.47629C23.4004 4.62277 23.1277 4.42578 23.2034 4.1884L23.5873 3.01155C23.6227 2.90549 23.5873 2.78932 23.4964 2.72366L22.4963 1.99634C22.2943 1.84986 22.4004 1.53166 22.6479 1.53166H23.8853C23.9964 1.53166 24.0974 1.46095 24.1328 1.35488L24.5167 0.178042C24.5924 -0.0593472 24.9308 -0.0593472 25.0066 0.178042" fill="#1C1D1C"/>
</svg>
