<svg width="243" height="56" viewBox="0 0 243 56" fill="none" xmlns="http://www.w3.org/2000/svg">
<path d="M94.2785 21.2856C93.8542 21.0886 93.531 20.8108 93.3037 20.4623C93.0764 20.1138 92.9148 19.7501 92.8188 19.3764C92.7431 19.0784 92.8794 18.9268 93.233 18.9268C94.0058 18.9773 94.824 18.9521 95.6826 18.8511C96.5413 18.7501 97.3848 18.6389 98.2081 18.5127C99.0313 18.3864 99.8041 18.2702 100.526 18.1591C101.249 18.048 101.875 17.9924 102.4 17.9924C103.198 17.9924 103.845 18.1692 104.345 18.5177C104.845 18.8662 105.219 19.3309 105.466 19.9016C105.517 20.0532 105.517 20.1845 105.466 20.2956C105.416 20.4067 105.264 20.4623 105.017 20.4623C103.592 20.437 102.239 20.5633 100.956 20.836C99.6677 21.1138 98.4555 21.3361 97.309 21.5129C96.6575 22.5836 95.9099 23.8514 95.0614 25.3111C94.2129 26.7708 93.329 28.3466 92.4047 30.0437C92.9047 29.9427 93.3593 29.877 93.7734 29.8366C94.1826 29.8013 94.5664 29.771 94.9149 29.7457C95.8645 29.6952 96.5817 29.8366 97.0666 30.175C97.5514 30.5134 97.8848 30.968 98.0565 31.5387C98.1828 31.9125 98.0414 32.0994 97.6424 32.0994C97.1676 32.0994 96.6423 32.1246 96.0716 32.1751C95.4958 32.2257 94.9048 32.3014 94.2937 32.3974C93.6825 32.4984 93.0714 32.6146 92.4602 32.7509C91.8491 32.8873 91.2834 33.0186 90.7581 33.1449C90.0358 34.544 89.3439 35.9229 88.6822 37.2815C88.0205 38.6402 87.4144 39.9585 86.869 41.2313C86.7174 41.5798 86.5053 41.6303 86.2326 41.3828C85.884 41.0848 85.6467 40.6151 85.5204 39.9787C85.3941 39.3423 85.5355 38.4382 85.9346 37.2664C86.2073 36.4431 86.6467 35.4026 87.2427 34.1399C87.8387 32.8823 88.5206 31.5185 89.2833 30.0588C90.0459 28.5992 90.8591 27.1092 91.7329 25.5838C92.6067 24.0635 93.4552 22.6291 94.2785 21.2805" fill="white"/>
<path d="M107.194 37.9429C106.87 38.3924 106.502 38.8369 106.088 39.2713C105.673 39.7057 105.239 40.0946 104.779 40.433C104.32 40.7714 103.84 41.0391 103.34 41.236C102.84 41.433 102.33 41.5088 101.804 41.4583C101.133 41.4078 100.618 41.2158 100.269 40.8774C99.9205 40.539 99.6831 40.1148 99.5569 39.6046C99.4306 39.0945 99.4053 38.5238 99.4811 37.9025C99.5569 37.2813 99.6932 36.655 99.8953 36.0337C100.32 34.7861 100.981 33.3164 101.88 31.6193C102.779 29.9222 103.84 28.215 105.062 26.4927C105.214 26.2907 105.375 26.1947 105.547 26.1947C105.719 26.1947 105.886 26.2806 106.032 26.4573C106.881 27.7301 106.643 29.4121 105.32 31.5082C104.623 32.6042 104.062 33.574 103.638 34.4073C103.214 35.2458 102.799 36.1095 102.4 37.0085C102.001 37.9328 101.825 38.6955 101.875 39.2915C101.926 39.8925 102.163 40.2158 102.587 40.2663C102.961 40.2915 103.36 40.1602 103.784 39.8723C104.209 39.5844 104.658 39.1804 105.133 38.6551C105.608 38.1298 106.098 37.5136 106.613 36.8014C107.123 36.0893 107.628 35.3215 108.128 34.4983C109.3 32.6042 110.219 30.993 110.881 29.6697C111.542 28.3463 112.174 27.2857 112.77 26.4876C113.118 25.9876 113.431 25.9119 113.704 26.2604C113.977 26.6089 114.154 27.1594 114.229 27.9069C114.305 28.6544 114.118 29.503 113.669 30.4525C113.467 30.8768 113.209 31.3566 112.881 31.892C112.558 32.4274 112.224 32.983 111.891 33.5588C111.553 34.1346 111.229 34.7053 110.916 35.2811C110.603 35.8569 110.335 36.3822 110.113 36.8519C109.613 37.9227 109.406 38.8117 109.497 39.5087C109.583 40.2057 109.967 40.534 110.638 40.4835C111.037 40.4582 111.452 40.3016 111.876 40.0138C112.3 39.7259 112.724 39.342 113.149 38.8521C113.573 38.3672 113.992 37.8166 114.401 37.2055C114.815 36.5943 115.204 35.963 115.578 35.3165C115.679 35.1397 115.795 35.0488 115.932 35.0336C116.068 35.0235 116.174 35.1043 116.25 35.2761C116.326 35.4276 116.356 35.7256 116.341 36.1751C116.326 36.6247 116.184 37.1095 115.911 37.6348C115.634 38.1601 115.295 38.6652 114.881 39.1501C114.467 39.6349 114.012 40.0592 113.512 40.4229C113.012 40.7865 112.487 41.0795 111.941 41.3017C111.391 41.529 110.845 41.6401 110.295 41.6401C109.073 41.6401 108.214 41.2967 107.714 40.6097C107.214 39.9228 107.042 39.0339 107.189 37.9328" fill="white"/>
<path d="M123.659 23.7956C123.907 24.2957 123.987 24.7704 123.902 25.22C123.816 25.6695 123.644 26.0331 123.397 26.3059C123.149 26.5786 122.806 26.6796 122.366 26.6039C121.932 26.5281 121.573 26.2402 121.3 25.7402C121.002 25.2402 120.881 24.7351 120.947 24.2249C121.007 23.7148 121.189 23.2956 121.487 22.9723C121.785 22.6491 122.159 22.5784 122.609 22.7653C123.058 22.9521 123.407 23.2956 123.659 23.7956ZM117.558 41.5341C116.836 41.5341 116.255 41.3927 115.815 41.1048C115.381 40.8169 115.053 40.433 114.84 39.9431C114.628 39.4582 114.542 38.8824 114.578 38.2208C114.613 37.5591 114.77 36.8419 115.048 36.0691C115.275 35.3974 115.583 34.6296 115.982 33.7659C116.381 32.9023 116.81 32.0588 117.275 31.2203C117.74 30.3819 118.194 29.594 118.644 28.8414C119.093 28.0939 119.492 27.4676 119.841 26.9675C120.164 26.518 120.462 26.4423 120.74 26.7403C121.013 27.0383 121.189 27.5585 121.265 28.2909C121.341 29.0283 121.154 29.8667 120.704 30.8163C120.502 31.2405 120.27 31.7002 119.992 32.2002C119.72 32.7002 119.432 33.2154 119.134 33.7558C118.836 34.2912 118.548 34.8266 118.275 35.3671C118.002 35.9024 117.765 36.4075 117.563 36.8823C117.113 37.9783 116.911 38.8622 116.962 39.5188C117.012 40.1805 117.336 40.4886 117.937 40.4381C118.361 40.4381 118.8 40.2866 119.245 39.9886C119.694 39.6906 120.139 39.3017 120.573 38.8269C121.007 38.3521 121.422 37.8117 121.811 37.2005C122.199 36.5894 122.528 35.958 122.801 35.3115C122.902 35.1347 123.008 35.0539 123.119 35.0691C123.23 35.0792 123.326 35.16 123.402 35.3115C123.7 35.8873 123.614 36.6601 123.139 37.6298C122.866 38.2056 122.518 38.736 122.093 39.2208C121.669 39.7057 121.204 40.1199 120.709 40.4532C120.209 40.7916 119.694 41.0543 119.154 41.2412C118.618 41.4281 118.088 41.524 117.563 41.524" fill="white"/>
<path d="M146.156 33.7863C146.403 34.6601 146.348 35.5137 145.989 36.3522C145.626 37.1856 145.131 37.9432 144.494 38.6149C143.858 39.2867 143.186 39.8574 142.474 40.3171C141.762 40.7817 141.171 41.0696 140.696 41.1959C140.246 41.3222 139.762 41.4282 139.236 41.5141C138.711 41.6 138.181 41.6303 137.645 41.6101C137.11 41.5848 136.574 41.4838 136.034 41.3121C135.499 41.1353 134.968 40.8524 134.443 40.4484C133.771 39.9484 133.19 39.2513 132.7 38.3523C132.216 37.4532 131.958 36.2309 131.933 34.6854C131.907 33.3368 132.089 32.0287 132.478 30.7559C132.867 29.483 133.377 28.2708 134.014 27.1243C134.65 25.9778 135.372 24.9019 136.186 23.9069C136.994 22.9069 137.837 22.023 138.711 21.2502C139.585 20.4774 140.453 19.8208 141.312 19.2854C142.176 18.75 142.954 18.3662 143.651 18.1439C144.701 17.7954 145.641 17.6237 146.474 17.6389C147.307 17.654 148.05 17.8965 148.701 18.3712C149.227 18.745 149.641 19.1592 149.954 19.6087C150.267 20.0582 150.495 20.533 150.646 21.033C150.969 22.0583 150.883 23.1443 150.383 24.2908C150.161 24.7908 149.909 25.3767 149.636 26.0485C149.363 26.7253 149.126 27.3364 148.924 27.8819C148.873 28.0335 148.782 28.1496 148.646 28.2355C148.51 28.3214 148.338 28.2658 148.141 28.0688C147.717 27.7708 147.388 27.3415 147.151 26.7758C146.913 26.2152 146.919 25.4575 147.171 24.513C147.297 24.0383 147.459 23.5635 147.656 23.0887C147.853 22.6139 148.03 22.1593 148.181 21.725C148.333 21.2906 148.424 20.8966 148.464 20.5481C148.499 20.1996 148.419 19.9269 148.222 19.7249C147.924 19.4269 147.353 19.3864 146.52 19.6137C145.681 19.836 144.737 20.2804 143.676 20.9421C142.615 21.6038 141.524 22.4624 140.403 23.5231C139.282 24.5837 138.272 25.7858 137.372 27.1344C136.499 28.4577 135.842 29.7861 135.408 31.1195C134.973 32.4529 134.696 33.6853 134.584 34.8066C134.473 35.9279 134.504 36.9078 134.68 37.7462C134.852 38.5846 135.13 39.1756 135.504 39.5241C136.029 39.9989 136.665 40.1958 137.413 40.1251C138.16 40.0494 138.948 39.7514 139.772 39.2261C140.595 38.7008 141.398 37.9987 142.186 37.1098C142.974 36.2259 143.651 35.2208 144.226 34.0944C143.63 34.2207 143.039 34.3268 142.469 34.4126C141.893 34.4985 141.383 34.5692 140.933 34.6197C139.984 34.7207 139.216 34.5945 138.63 34.246C138.044 33.8975 137.615 33.4227 137.337 32.8216C137.135 32.4226 137.261 32.2206 137.711 32.2206C138.433 32.2206 139.155 32.165 139.883 32.0539C140.605 31.9428 141.307 31.8266 141.979 31.7155C142.651 31.6044 143.307 31.4882 143.944 31.3771C144.58 31.266 145.186 31.2104 145.757 31.2104C146.706 31.1852 147.449 31.3569 147.984 31.7155C148.52 32.0792 148.914 32.5438 149.161 33.1196C149.262 33.3217 149.287 33.4833 149.237 33.6045C149.186 33.7308 149.035 33.7661 148.787 33.7156C148.439 33.6651 148.04 33.655 147.59 33.6803C147.141 33.7055 146.666 33.7409 146.166 33.7914" fill="white"/>
<path d="M159.03 31.9174C159.328 30.7204 159.429 29.7961 159.328 29.1496C159.227 28.5536 159.04 28.2808 158.768 28.3465C158.495 28.4071 158.308 28.7152 158.207 29.2657C158.106 29.7658 158.146 30.2607 158.318 30.7608C158.49 31.2608 158.727 31.6447 159.03 31.9225M158.768 32.9326C158.545 32.8316 158.308 32.6851 158.055 32.4831C157.656 32.1851 157.273 31.7356 156.914 31.1345C156.55 30.5385 156.358 29.887 156.333 29.19C155.833 29.6142 155.328 30.1244 154.818 30.7254C154.308 31.3265 153.848 31.9881 153.454 32.7104C153.055 33.4327 152.722 34.1701 152.464 34.9176C152.201 35.6651 152.02 36.3722 151.924 37.0339C151.823 37.6956 151.797 38.2764 151.848 38.7764C151.898 39.2765 152.045 39.625 152.297 39.8219C152.545 40.0442 152.873 40.13 153.272 40.0644C153.671 40.0038 154.111 39.8118 154.58 39.4835C155.055 39.1603 155.54 38.7057 156.04 38.1148C156.54 37.5289 157.015 36.8016 157.464 35.9227C157.737 35.3974 157.99 34.8822 158.212 34.3721C158.434 33.862 158.621 33.3821 158.773 32.9326M162.253 32.9326C162.005 33.2104 161.667 33.372 161.242 33.4175C161.04 34.2155 160.758 35.0338 160.384 35.8672C160.01 36.7005 159.561 37.4834 159.035 38.2057C158.51 38.928 157.939 39.5694 157.313 40.1351C156.692 40.6957 156.03 41.0897 155.328 41.3119C154.656 41.5342 153.888 41.5594 153.025 41.3877C152.166 41.2109 151.358 40.6402 150.61 39.6654C150.186 39.1148 149.903 38.5138 149.767 37.8521C149.631 37.1905 149.6 36.4985 149.676 35.7762C149.752 35.054 149.919 34.3064 150.181 33.5337C150.444 32.7609 150.787 31.9982 151.212 31.2507C151.934 29.9779 152.828 28.8718 153.888 27.9374C154.949 27.003 156.04 26.4827 157.161 26.3817C157.737 26.3565 158.207 26.4373 158.586 26.6241C158.965 26.811 159.333 27.1545 159.707 27.6545C159.929 27.9525 160.157 28.2101 160.379 28.4222C160.601 28.6344 160.808 28.8768 160.995 29.1496C161.182 29.4223 161.318 29.7607 161.404 30.1597C161.49 30.5587 161.51 31.0941 161.46 31.7709C161.434 31.9225 161.424 32.0639 161.424 32.2003C161.424 32.3366 161.409 32.4831 161.389 32.6296C161.515 32.6296 161.631 32.6195 161.743 32.5942C161.854 32.569 161.985 32.5538 162.136 32.5538C162.263 32.5538 162.328 32.5942 162.344 32.6649C162.359 32.7356 162.323 32.8266 162.253 32.9276" fill="white"/>
<path d="M167.561 30.7962C167.011 31.7963 166.404 32.8014 165.748 33.8115C165.086 34.8217 164.394 35.8369 163.672 36.8622C163.823 37.4128 163.995 37.9077 164.197 38.3573C164.399 38.8068 164.621 39.1806 164.869 39.4786C165.116 39.7766 165.389 39.9937 165.672 40.1352C165.96 40.2715 166.253 40.2917 166.551 40.1907C166.975 40.0644 167.273 39.6503 167.45 38.9381C167.627 38.2259 167.723 37.3926 167.748 36.4279C167.773 35.4682 167.753 34.4782 167.692 33.4529C167.632 32.4276 167.586 31.5437 167.561 30.7962ZM163.334 34.8368C164.106 33.7913 164.879 32.6902 165.652 31.5437C166.425 30.3972 167.086 29.3466 167.637 28.4021C167.738 27.6798 167.884 27.104 168.086 26.6798C168.288 26.2555 168.586 25.8716 168.985 25.5181C169.41 25.1443 169.809 24.912 170.182 24.8261C170.556 24.7403 170.829 24.7807 171.006 24.9574C171.208 25.1595 171.268 25.3767 171.193 25.614C171.117 25.8514 170.955 26.1797 170.708 26.604C170.632 26.7303 170.561 26.8464 170.501 26.9576C170.44 27.0687 170.369 27.1899 170.294 27.3111C170.218 28.1849 170.198 29.0132 170.238 29.8012C170.273 30.5891 170.334 31.3518 170.405 32.1044C170.48 32.8519 170.541 33.5691 170.592 34.256C170.642 34.9429 170.652 35.6096 170.627 36.2561C170.576 36.9784 170.45 37.7057 170.253 38.428C170.051 39.1503 169.617 39.7361 168.945 40.1857C170.193 39.7109 171.223 38.9836 172.031 37.9936C172.844 37.0087 173.486 36.0036 173.96 34.9833C174.061 34.7813 174.183 34.6954 174.334 34.7207C174.486 34.7459 174.597 34.8318 174.673 34.9833C174.748 35.1601 174.758 35.4682 174.708 35.9177C174.657 36.3672 174.471 36.8774 174.147 37.4532C173.425 38.7512 172.476 39.7513 171.304 40.4483C170.132 41.1453 168.869 41.5191 167.526 41.5696C166.975 41.5949 166.44 41.5696 165.914 41.4938C165.389 41.4181 164.889 41.2766 164.419 41.0645C163.945 40.8524 163.505 40.5594 163.091 40.1857C162.677 39.8119 162.313 39.3371 161.985 38.7613C161.763 38.3371 161.596 37.8774 161.5 37.3774C161.399 36.8774 161.369 36.3925 161.409 35.9177C161.445 35.4429 161.556 34.9985 161.727 34.5894C161.899 34.1802 162.152 33.8368 162.475 33.559C162.95 33.16 163.212 33.2862 163.263 33.9327C163.288 34.0843 163.298 34.2307 163.298 34.3823C163.298 34.5338 163.308 34.6803 163.334 34.8318" fill="white"/>
<path d="M177.855 26.4172C177.203 26.4172 176.678 26.3061 176.264 26.0788C175.849 25.8515 175.572 25.6444 175.42 25.4424C175.218 25.1696 175.173 24.9676 175.269 24.8413C175.37 24.7151 175.557 24.6645 175.829 24.6898C176.355 24.7151 176.88 24.71 177.4 24.6696C177.925 24.6342 178.435 24.5888 178.936 24.5383C179.511 23.4928 180.047 22.5634 180.547 21.7502C181.047 20.9421 181.456 20.3208 181.784 19.8966C181.961 19.6491 182.128 19.5279 182.289 19.543C182.451 19.5531 182.582 19.6743 182.683 19.8966C182.885 20.4219 182.966 21.0128 182.926 21.6745C182.89 22.3361 182.643 23.1544 182.198 24.1241C182.921 24.0989 183.451 24.2201 183.789 24.4777C184.128 24.7403 184.37 24.9979 184.517 25.2454C184.789 25.7202 184.643 25.9576 184.067 25.9576C183.643 25.9071 183.168 25.902 182.643 25.9374C182.118 25.9727 181.618 26.0283 181.148 26.104C180.774 26.7303 180.375 27.4172 179.951 28.1648C179.526 28.9123 179.092 29.6952 178.643 30.5033C178.193 31.3114 177.749 32.1398 177.314 32.9732C176.88 33.8116 176.486 34.6147 176.137 35.3874C175.839 36.0592 175.632 36.7057 175.521 37.3169C175.41 37.928 175.39 38.4684 175.466 38.9432C175.541 39.418 175.698 39.7918 175.935 40.0645C176.173 40.3373 176.491 40.4888 176.89 40.514C177.314 40.5393 177.759 40.4029 178.218 40.0999C178.678 39.8019 179.143 39.4028 179.602 38.9028C180.062 38.4028 180.506 37.8219 180.931 37.1603C181.355 36.4986 181.739 35.8218 182.092 35.1198C182.219 34.8925 182.36 34.7712 182.522 34.746C182.683 34.7207 182.804 34.847 182.875 35.1198C182.976 35.4178 182.986 35.7461 182.911 36.0946C182.835 36.4431 182.698 36.832 182.501 37.2563C182.375 37.529 182.138 37.9129 181.789 38.3977C181.441 38.8826 181.001 39.3624 180.481 39.8372C179.956 40.312 179.36 40.7161 178.683 41.0545C178.011 41.3929 177.299 41.5494 176.552 41.5242C175.93 41.4989 175.354 41.3171 174.829 40.9838C174.304 40.6454 173.9 40.1655 173.612 39.5443C173.324 38.923 173.188 38.1704 173.198 37.2967C173.208 36.4229 173.44 35.4531 173.89 34.3773C174.289 33.4277 174.849 32.2357 175.577 30.8013C176.299 29.3669 177.062 27.9021 177.86 26.402" fill="white"/>
<path d="M184.966 33.7509C185.416 34.0489 185.85 34.1903 186.274 34.165C186.699 34.1398 187.098 34.0135 187.471 33.7913C187.845 33.569 188.194 33.2811 188.517 32.9276C188.84 32.5791 189.138 32.2306 189.416 31.8821C189.714 31.483 189.982 31.079 190.219 30.6648C190.456 30.2506 190.648 29.8617 190.8 29.488C190.951 29.1142 191.037 28.7909 191.062 28.5132C191.088 28.2404 191.037 28.0535 190.911 27.9525C190.709 27.801 190.386 27.8161 189.936 27.9879C189.487 28.1646 188.987 28.4879 188.441 28.9627C187.891 29.4375 187.335 30.0233 186.774 30.7204C186.214 31.4174 185.709 32.2154 185.259 33.1145C185.209 33.2407 185.158 33.3518 185.108 33.4529C185.057 33.5539 185.007 33.6549 184.956 33.7509M184.618 34.5388C184.017 36.2611 183.9 37.6652 184.264 38.7512C184.628 39.8371 185.305 40.4028 186.305 40.4533C187.077 40.5038 187.825 40.3674 188.552 40.0442C189.274 39.7209 189.956 39.2967 190.593 38.7714C191.229 38.2461 191.815 37.6652 192.35 37.0339C192.886 36.3975 193.356 35.7661 193.755 35.1449C193.856 34.9934 193.967 34.9226 194.093 34.9226C194.219 34.9226 194.32 35.0085 194.391 35.1853C194.467 35.3368 194.467 35.6348 194.391 36.0843C194.315 36.5339 194.103 37.0086 193.755 37.5087C192.957 38.6552 191.896 39.6149 190.573 40.3927C189.249 41.1655 187.865 41.5645 186.416 41.5897C185.219 41.615 184.229 41.3523 183.441 40.8018C182.653 40.2513 182.087 39.5441 181.739 38.6704C181.39 37.7966 181.269 36.7864 181.385 35.6399C181.496 34.4933 181.855 33.3165 182.451 32.1194C183.052 30.9224 183.724 29.8971 184.471 29.0485C185.219 28.2 185.966 27.5383 186.719 27.0636C187.466 26.5888 188.178 26.2958 188.85 26.1847C189.522 26.0736 190.098 26.1544 190.573 26.4272C191.047 26.6999 191.456 26.9878 191.81 27.2858C192.158 27.5838 192.482 27.9475 192.785 28.3717C192.962 28.599 193.068 28.897 193.103 29.2708C193.138 29.6445 193.118 30.0638 193.027 30.5234C192.941 30.983 192.78 31.4729 192.542 31.9831C192.305 32.4932 191.987 32.9882 191.588 33.463C191.138 34.0388 190.648 34.5085 190.108 34.8873C189.572 35.2611 189.002 35.5186 188.406 35.655C187.805 35.7914 187.188 35.7762 186.552 35.5995C185.916 35.4227 185.274 35.0742 184.623 34.5539" fill="white"/>
<path d="M201.846 23.7956C202.094 24.2957 202.174 24.7704 202.089 25.22C202.003 25.6695 201.831 26.0331 201.584 26.3059C201.336 26.5786 200.993 26.6796 200.553 26.6039C200.119 26.5281 199.76 26.2402 199.487 25.7402C199.189 25.2402 199.068 24.7351 199.134 24.2249C199.195 23.7148 199.376 23.2956 199.674 22.9723C199.972 22.6491 200.346 22.5784 200.796 22.7653C201.245 22.9521 201.594 23.2956 201.846 23.7956ZM195.745 41.5341C195.023 41.5341 194.442 41.3927 194.002 41.1048C193.568 40.8169 193.24 40.433 193.027 39.9431C192.815 39.4582 192.729 38.8824 192.765 38.2208C192.8 37.5591 192.957 36.8419 193.235 36.0691C193.462 35.3974 193.77 34.6296 194.169 33.7659C194.568 32.9023 194.997 32.0588 195.462 31.2203C195.922 30.387 196.381 29.594 196.826 28.8414C197.275 28.0939 197.674 27.4676 198.023 26.9675C198.346 26.518 198.644 26.4423 198.922 26.7403C199.194 27.0383 199.371 27.5585 199.447 28.2909C199.523 29.0283 199.336 29.8667 198.886 30.8163C198.684 31.2405 198.452 31.7002 198.174 32.2002C197.901 32.7002 197.614 33.2154 197.316 33.7558C197.018 34.2912 196.73 34.8266 196.457 35.3671C196.184 35.9024 195.947 36.4075 195.745 36.8823C195.295 37.9783 195.093 38.8622 195.144 39.5188C195.194 40.1805 195.518 40.4886 196.119 40.4381C196.543 40.4381 196.977 40.2866 197.427 39.9886C197.876 39.6906 198.321 39.3017 198.755 38.8269C199.189 38.3521 199.604 37.8117 199.993 37.2005C200.381 36.5894 200.71 35.958 200.982 35.3115C201.084 35.1347 201.19 35.0539 201.301 35.0691C201.412 35.0792 201.508 35.16 201.584 35.3115C201.882 35.8873 201.796 36.6601 201.321 37.6298C201.048 38.2056 200.7 38.736 200.275 39.2208C199.851 39.7057 199.386 40.1199 198.891 40.4532C198.391 40.7916 197.876 41.0543 197.336 41.2412C196.8 41.4281 196.27 41.524 195.745 41.524" fill="white"/>
<path d="M214.781 32.2459H212.559V31.3569H218.049V32.2459H215.832V38.2311H214.781V32.2459Z" fill="white"/>
<path d="M222.221 34.5541L224.342 38.2261H223.156L221.433 35.1501L222.221 34.5541ZM221.509 34.5895C222.514 34.5895 223.06 34.1702 223.06 33.347C223.06 32.5237 222.509 32.2055 221.509 32.2055H220.474V34.5945H221.509V34.5895ZM219.413 31.3569H221.635C223.044 31.3569 224.11 31.862 224.11 33.347C224.11 34.8319 223.049 35.438 221.635 35.438H220.474V38.2311H219.413V31.3569Z" fill="white"/>
<path d="M225.686 37.3422H227.368V32.2459H225.686V31.3569H230.106V32.2459H228.424V37.3422H230.106V38.2311H225.686V37.3422Z" fill="white"/>
<path d="M234.106 34.7609C235.212 34.7609 235.742 34.3366 235.742 33.4275C235.742 32.5183 235.196 32.2052 234.106 32.2052H233.09V34.7609H234.106ZM232.04 31.3566H234.207C235.717 31.3566 236.787 31.8768 236.787 33.4275C236.787 34.9781 235.702 35.6044 234.207 35.6044H233.09V38.2257H232.035V31.3516L232.04 31.3566Z" fill="white"/>
<path d="M237.994 37.347L238.611 36.6197C239.131 37.1096 239.828 37.4329 240.575 37.4329C241.444 37.4329 241.929 37.0339 241.929 36.4783C241.929 35.8065 241.429 35.6196 240.747 35.3317L239.777 34.9075C239.075 34.6297 238.308 34.1246 238.308 33.1094C238.308 32.0386 239.272 31.2305 240.626 31.2305C241.474 31.2305 242.252 31.5689 242.783 32.0942L242.237 32.7659C241.778 32.3821 241.278 32.1548 240.575 32.1548C239.873 32.1548 239.368 32.4881 239.368 33.0538C239.368 33.6498 239.959 33.867 240.565 34.1044L241.495 34.5135C242.358 34.8469 243 35.3519 243 36.3571C243 37.4581 242.07 38.3622 240.51 38.3622C239.525 38.3622 238.631 37.9784 237.984 37.3521" fill="white"/>
<path d="M77.4542 9.33005C81.4444 9.33005 85.4345 9.33005 89.4247 9.33005C89.7631 9.33005 90.1116 9.33006 90.4449 9.40077C90.5863 9.43107 90.7732 9.64321 90.7783 9.77958C90.7833 9.91595 90.6065 10.1584 90.4803 10.1836C90.0762 10.2645 89.657 10.2998 89.2428 10.2998C81.5656 10.3049 73.8883 10.3301 66.2161 10.2796C64.8625 10.2695 64.0594 10.7039 63.4331 11.9262C61.4128 15.881 59.2914 19.7853 57.2105 23.7047C56.564 24.9169 56.7408 25.2351 58.1449 25.2401C62.4785 25.2502 66.8071 25.2401 71.1407 25.2452C73.3176 25.2452 73.9691 25.917 73.954 28.1292C73.9035 34.0185 73.8429 39.9077 73.7924 45.797C73.7722 47.9133 74.0398 48.186 76.0955 48.186C78.8684 48.186 81.6413 48.186 84.4193 48.186C84.7223 48.186 85.0506 48.1355 85.3234 48.2315C85.5204 48.3022 85.7072 48.5598 85.778 48.7719C85.8032 48.8527 85.5153 49.1204 85.3335 49.1709C85.0456 49.2467 84.7324 49.2164 84.4294 49.2164C81.6918 49.2164 78.9593 49.2164 76.2218 49.2164C73.2822 49.2164 72.7317 48.6608 72.7519 45.6657C72.7923 39.9279 72.8428 34.1902 72.8832 28.4525C72.8984 26.4018 72.7165 26.2301 70.7063 26.2301C66.4889 26.2301 62.2714 26.2352 58.054 26.2301C55.9074 26.2251 55.2609 25.1593 56.2811 23.2299C58.453 19.0983 60.6804 14.992 62.8472 10.8605C63.4281 9.74927 64.2614 9.3048 65.509 9.31995C69.4992 9.36541 73.4893 9.33511 77.4795 9.33511" fill="white"/>
<path d="M57.4834 30.0334C56.7308 28.3464 54.4479 27.5787 52.7811 28.4474C50.4375 29.6748 48.0788 30.8718 45.7655 32.1598C40.2955 35.2105 34.4971 36.8166 28.1886 36.5288C24.4864 36.357 20.9963 35.6247 17.8698 33.5336C14.8191 31.4931 11.7634 29.4576 8.69247 27.4474C8.31365 27.1999 7.90959 26.9827 7.48532 26.7655C7.31359 26.7049 7.14186 26.6392 6.96509 26.5837C6.56102 26.4473 6.19736 26.4019 5.84885 26.4221C5.21245 26.7756 4.58615 27.0888 4.08612 27.5383C2.79816 28.705 1.59606 29.9677 0.404066 31.2304C0.161626 31.488 0.131321 31.9376 0 32.3012C0.404066 32.185 0.91925 32.1901 1.19199 31.9376C2.37894 30.8365 3.48002 29.6445 4.6316 28.508C5.89431 27.2655 6.49031 27.2403 7.92979 28.2353C10.233 29.8314 12.4654 31.5638 14.8848 32.9629C17.4961 34.4781 20.1679 36.1752 23.0368 36.9076C28.1028 38.2107 33.3253 37.9329 38.3863 36.4681C43.432 35.0085 47.9071 32.2659 52.5134 29.8415C54.5337 28.7808 54.5539 28.7 56.1803 30.2253C56.3823 30.4122 56.5743 30.6395 56.8167 30.7405C56.9935 30.8163 57.3218 30.786 57.4329 30.6647C57.5491 30.5385 57.5592 30.2102 57.4834 30.0334Z" fill="white"/>
<path d="M80.4749 18.063C80.4749 17.2701 80.4547 16.472 80.4799 15.679C80.5001 15.0628 80.2526 14.7699 79.6213 14.775C78.3737 14.7901 77.1211 14.7952 75.8736 14.775C75.2321 14.7648 74.9998 15.0578 75.0048 15.6689C75.0149 17.2195 74.9695 18.7752 75.0453 20.3208C75.0604 20.6087 75.5251 21.0986 75.8079 21.1188C77.0858 21.2046 78.3788 21.2046 79.6617 21.1188C79.9496 21.0986 80.389 20.639 80.4395 20.3359C80.5557 19.5985 80.4749 18.8257 80.4799 18.0731M68.4842 17.8812C68.4842 18.6742 68.5095 19.4722 68.4741 20.2652C68.4489 20.8965 68.7065 21.1693 69.3277 21.1592C70.5753 21.1491 71.8279 21.139 73.0754 21.1642C73.7926 21.1794 73.9846 20.8056 73.9694 20.1692C73.9492 19.1843 73.9694 18.1994 73.9644 17.2145C73.9391 14.4315 74.2624 14.7952 71.5602 14.78C68.4792 14.7598 68.4792 14.78 68.4792 17.8762M74.4189 22.1593C72.5602 22.1593 70.6965 22.139 68.8378 22.1694C67.8226 22.1845 67.4034 21.7703 67.4337 20.74C67.4842 18.8813 67.469 17.0226 67.4337 15.1588C67.4185 14.1537 67.8226 13.7042 68.8479 13.7143C72.6057 13.7395 76.3635 13.7345 80.1213 13.7143C81.0608 13.7143 81.5356 14.088 81.5305 15.0578C81.5154 16.9923 81.5103 18.9267 81.5305 20.8662C81.5406 21.7905 81.1113 22.1694 80.2173 22.1643C78.2828 22.1492 76.3433 22.1643 74.4088 22.1643" fill="white"/>
<path d="M24.754 47.9992H43.6643C43.8562 47.9992 44.0633 47.9487 44.23 48.0093C44.6088 48.1457 44.9674 48.3427 45.3361 48.5144C44.9624 48.6811 44.5836 48.9942 44.2098 48.9942C35.7396 49.0245 27.2744 49.0144 18.8092 49.0144C14.4806 49.0144 10.1521 49.0144 5.82354 49.0144C5.48008 49.0144 5.12652 49.0548 4.80327 48.969C4.60124 48.9134 4.45981 48.6508 4.28809 48.4841C4.46486 48.3275 4.62649 48.0901 4.82852 48.0396C5.15178 47.9588 5.50533 48.0043 5.84879 48.0043C12.1522 48.0043 18.4556 48.0043 24.7591 48.0043" fill="white"/>
<path d="M59.9733 43.6554C57.0438 43.6554 54.6599 45.9788 54.6144 48.8779C54.574 51.7216 57.1499 54.2924 59.9986 54.2621C62.8169 54.2318 65.3019 51.7216 65.3019 48.9082C65.3019 46.0394 62.8927 43.6604 59.9733 43.6604M66.2767 48.9285C66.2767 52.5297 63.5291 55.247 59.9178 55.2268C56.4024 55.2066 53.579 52.4236 53.5689 48.9638C53.5588 45.4888 56.4478 42.5745 59.938 42.5341C63.4028 42.4937 66.2767 45.3929 66.2717 48.9285" fill="white"/>
<path d="M60.5845 34.9125C63.8777 34.9125 66.8627 34.9327 69.8528 34.8721C70.0599 34.8721 70.4134 34.3064 70.4235 33.9933C70.4841 32.5134 70.4336 31.0335 70.4589 29.5486C70.469 28.8667 70.2064 28.6041 69.5194 28.6142C67.6961 28.6445 65.8727 28.6041 64.0494 28.6445C63.7615 28.6495 63.3221 28.8263 63.2211 29.0485C62.3523 30.887 61.5442 32.7609 60.5845 34.9176M65.398 35.9732C63.8423 35.9732 62.2867 35.9884 60.7361 35.9682C59.5643 35.953 59.2309 35.4429 59.6855 34.367C60.4835 32.4831 61.327 30.6244 62.12 28.7404C62.4533 27.9475 62.9584 27.5484 63.8474 27.5585C65.9334 27.5888 68.0193 27.5838 70.1053 27.5585C71.1155 27.5484 71.5297 27.9626 71.4994 28.998C71.4438 30.8517 71.4539 32.7154 71.4994 34.5691C71.5246 35.6095 71.07 36.0035 70.07 35.9833C68.5143 35.953 66.9587 35.9783 65.4081 35.9732" fill="white"/>
<path d="M46.2807 43.2464C46.3261 42.2968 46.4069 41.3523 46.4069 40.4028C46.4069 38.5087 47.3615 37.3672 49.099 36.7763C51.0739 36.0995 53.0286 35.3671 55.0135 34.7256C56.1449 34.362 56.8874 33.6852 57.3773 32.6043C58.1198 30.983 58.9229 29.392 59.7664 27.8212C59.9128 27.5434 60.3624 27.4222 60.6705 27.2302C60.6806 27.5686 60.8169 27.9626 60.6907 28.2303C59.7967 30.1142 58.938 32.0235 57.8774 33.8165C57.4531 34.5287 56.6248 35.1499 55.8368 35.4782C53.8822 36.2965 51.8416 36.9127 49.8415 37.6248C47.8868 38.3218 47.4373 38.9279 47.3767 40.9584C47.3312 42.5898 47.2908 44.2212 47.3009 45.8577C47.3161 47.8275 47.6949 48.1861 49.6395 48.1911C50.3971 48.1911 51.1648 48.1406 51.9174 48.2214C52.2103 48.2518 52.478 48.5649 52.7558 48.7467C52.4932 48.9033 52.2356 49.1862 51.973 49.1963C50.8365 49.2367 49.69 49.2518 48.5586 49.1761C47.3211 49.0952 46.5686 48.4538 46.417 47.2214C46.2554 45.9082 46.2706 44.5747 46.21 43.2514C46.2352 43.2514 46.2605 43.2514 46.2908 43.2514" fill="white"/>
<path d="M69.6356 49.2013C69.0295 49.2013 68.4184 49.2366 67.8173 49.1811C67.6203 49.1609 67.4486 48.8982 67.2617 48.7467C67.4284 48.5699 67.5951 48.2467 67.7668 48.2416C69.0548 48.1962 70.3427 48.1962 71.6307 48.2416C71.8024 48.2467 71.964 48.5699 72.1257 48.7467C71.9388 48.8982 71.762 49.1659 71.56 49.1811C70.9185 49.2366 70.272 49.2013 69.6306 49.2013" fill="white"/>
<path d="M59.9332 46.7215C58.6856 46.7417 57.6653 47.8276 57.7058 49.1055C57.7462 50.3278 58.7866 51.3329 59.9887 51.3127C61.1807 51.2925 62.2363 50.2368 62.2464 49.0549C62.2616 47.8377 61.1353 46.7063 59.9332 46.7215ZM63.2768 49.0398C63.2718 50.8682 61.7666 52.3784 59.9534 52.3733C58.1553 52.3733 56.5895 50.8126 56.5845 49.0297C56.5845 47.2063 58.0745 45.7568 59.9635 45.7517C61.8777 45.7517 63.2819 47.1407 63.2768 49.0347" fill="white"/>
<path d="M31.2951 24.245C27.5979 20.8408 27.1231 15.4212 29.3859 11.6079C34.0478 16.2698 38.7097 20.9367 43.3716 25.5936C40.1088 27.5887 34.9822 27.6392 31.2951 24.245ZM29.2697 25.6794C28.6333 25.0228 28.5424 24.0177 29.0526 23.2197C29.8102 24.2753 30.7092 25.1794 31.7699 25.932C30.9012 26.4472 29.9112 26.3462 29.2697 25.6794ZM43.8818 24.6339C41.7604 22.5126 39.6441 20.3963 37.5228 18.2749C37.4773 18.2295 37.4066 18.2042 37.341 18.1638C37.6339 17.8709 37.8865 17.6335 38.1188 17.386C38.2451 17.2496 38.3562 17.1941 38.5582 17.2547C38.9623 17.3759 39.4118 17.1789 39.6643 16.8254C39.9169 16.4667 39.927 15.992 39.6896 15.6233C39.4522 15.2495 39.0077 15.0576 38.5885 15.1434C37.942 15.2697 37.5632 15.891 37.745 16.5223C37.7602 16.5779 37.7804 16.6688 37.745 16.7041C37.4571 17.0072 37.1541 17.3001 36.8207 17.6284C36.7753 17.5628 36.7399 17.5022 36.6945 17.4517C34.5731 15.3253 32.4518 13.2039 30.3254 11.0826C29.6991 10.4563 28.7748 10.5876 28.3555 11.3654C27.3807 13.1787 26.9161 15.1131 27.0019 17.1789C27.0777 18.9568 27.5373 20.6236 28.401 22.1843C28.4616 22.2954 28.4667 22.3611 28.3808 22.4671C27.5373 23.5025 27.4818 24.9319 28.2495 26.0128C28.3404 26.1441 28.3404 26.23 28.2747 26.3664C26.5777 29.6847 24.8856 33.0082 23.1936 36.3266C23.1936 36.3266 23.1936 36.3266 23.1936 36.3316C23.5674 36.3316 23.9361 36.3316 24.3098 36.3518C25.921 33.19 27.5272 30.0383 29.1334 26.8916C29.4415 26.9977 29.7294 27.0937 30.0122 27.1997C30.0577 27.2149 30.088 27.2755 30.1132 27.321C30.9517 28.9625 31.7851 30.604 32.6184 32.2455C33.3862 33.7507 34.1539 35.2558 34.9216 36.761C34.9974 36.761 35.0782 36.7559 35.154 36.7509C35.4166 36.7104 35.6843 36.6801 35.952 36.665C35.9267 36.5438 35.8863 36.4175 35.8207 36.3013C35.2196 35.175 34.6539 34.0285 34.0731 32.892C33.2851 31.3515 32.5023 29.806 31.7143 28.2655C31.5426 27.9271 31.3709 27.5836 31.1941 27.2402C31.2295 27.225 31.2547 27.2149 31.28 27.2048C31.7598 27.0836 32.1992 26.8765 32.5679 26.5532C32.6487 26.4825 32.7094 26.533 32.77 26.5684C34.1236 27.321 35.5681 27.7705 37.1086 27.9271C39.3966 28.1594 41.5584 27.725 43.5838 26.6341C44.3919 26.1997 44.5182 25.2855 43.8717 24.639" fill="white"/>
<path d="M38.7146 8.28979C38.9671 8.35546 39.3004 8.41607 39.6237 8.52213C43.3765 9.74443 45.7251 12.2799 46.6595 16.1186C46.6797 16.2095 46.6999 16.3055 46.6898 16.3964C46.6746 16.5731 46.5181 16.7095 46.3413 16.7196C46.1494 16.7297 45.9978 16.6136 45.9473 16.4115C45.8918 16.1792 45.8514 15.9468 45.7807 15.7196C44.6745 12.1183 42.2804 9.90606 38.6186 9.04742C38.3408 8.98176 38.1994 8.77972 38.2852 8.54739C38.3408 8.39081 38.4772 8.29485 38.7146 8.29485" fill="white"/>
<path d="M44.5935 16.7146C44.5935 16.9368 44.4621 17.0934 44.2702 17.1187C44.0682 17.149 43.9066 17.0227 43.8459 16.8106C43.7247 16.3813 43.6338 15.9368 43.4621 15.5277C42.4772 13.1588 40.7195 11.7042 38.2193 11.1335C38.0021 11.0829 37.886 10.9819 37.8607 10.8203C37.8203 10.5476 38.0426 10.3304 38.3153 10.3859C39.8053 10.6839 41.1084 11.3506 42.2145 12.3911C43.4267 13.5326 44.2046 14.9216 44.5581 16.5429C44.5733 16.6085 44.5834 16.6742 44.5884 16.7146" fill="white"/>
<path d="M37.4468 12.8554C37.4468 12.6079 37.6438 12.4362 37.9014 12.4817C38.5933 12.6079 39.2398 12.8605 39.8358 13.2393C41.245 14.1333 42.139 15.396 42.4875 17.0325C42.5431 17.28 42.4218 17.482 42.1996 17.5274C41.9925 17.5679 41.8056 17.4264 41.7551 17.184C41.5581 16.2395 41.1339 15.4162 40.4722 14.7141C39.7348 13.9313 38.8358 13.4464 37.7902 13.2241C37.573 13.1787 37.4518 13.0474 37.4468 12.8554Z" fill="white"/>
<path d="M50.4931 3.461L50.877 4.63784C50.9124 4.74391 51.0134 4.81462 51.1245 4.81462H52.3619C52.6094 4.81462 52.7155 5.13282 52.5135 5.2793L51.5134 6.00662C51.4225 6.07228 51.3871 6.18845 51.4225 6.29451L51.8064 7.47135C51.8821 7.70874 51.6094 7.90573 51.4073 7.75925L50.4073 7.03193C50.3164 6.96627 50.1951 6.96627 50.1042 7.03193L49.1042 7.75925C48.9021 7.90573 48.6294 7.70874 48.7052 7.47135L49.089 6.29451C49.1244 6.18845 49.089 6.07228 48.9981 6.00662L47.998 5.2793C47.796 5.13282 47.9021 4.81462 48.1496 4.81462H49.387C49.4981 4.81462 49.5991 4.74391 49.6345 4.63784L50.0184 3.461C50.0941 3.22361 50.4325 3.22361 50.5083 3.461" fill="white"/>
<path d="M14.5008 17.4114L14.8846 18.5883C14.92 18.6943 15.021 18.7651 15.1321 18.7651H16.3696C16.6171 18.7651 16.7231 19.0833 16.5211 19.2297L15.521 19.9571C15.4301 20.0227 15.3948 20.1389 15.4301 20.245L15.814 21.4218C15.8898 21.6592 15.617 21.8562 15.415 21.7097L14.4149 20.9824C14.324 20.9167 14.2028 20.9167 14.1119 20.9824L13.1118 21.7097C12.9098 21.8562 12.637 21.6592 12.7128 21.4218L13.0966 20.245C13.132 20.1389 13.0966 20.0227 13.0057 19.9571L12.0057 19.2297C11.8036 19.0833 11.9047 18.7651 12.1572 18.7651H13.3946C13.5058 18.7651 13.6068 18.6943 13.6421 18.5883L14.026 17.4114C14.1018 17.1741 14.4402 17.1741 14.5159 17.4114" fill="white"/>
<path d="M24.9914 0.178042L25.3753 1.35488C25.4107 1.46095 25.5117 1.53166 25.6228 1.53166H26.8602C27.1077 1.53166 27.2138 1.84986 27.0118 1.99634L26.0117 2.72366C25.9208 2.78932 25.8854 2.90549 25.9208 3.01155L26.3047 4.1884C26.3804 4.42578 26.1077 4.62277 25.9056 4.47629L24.9056 3.74897C24.8147 3.68331 24.6934 3.68331 24.6025 3.74897L23.6025 4.47629C23.4004 4.62277 23.1277 4.42578 23.2034 4.1884L23.5873 3.01155C23.6227 2.90549 23.5873 2.78932 23.4964 2.72366L22.4963 1.99634C22.2943 1.84986 22.4004 1.53166 22.6479 1.53166H23.8853C23.9964 1.53166 24.0974 1.46095 24.1328 1.35488L24.5167 0.178042C24.5924 -0.0593472 24.9308 -0.0593472 25.0066 0.178042" fill="white"/>
</svg>
